<svg xmlns="http://www.w3.org/2000/svg" width="64" height="64" viewBox="0 0 24 24" fill="none" stroke="#ff3c00" stroke-width="1.5" stroke-linecap="round" stroke-linejoin="round">
    <path d="M14.5 2H6a2 2 0 0 0-2 2v16a2 2 0 0 0 2 2h12a2 2 0 0 0 2-2V7.5L14.5 2z"></path>
    <polyline points="14 2 14 8 20 8"></polyline>
    <path d="M12 18v-5"></path>
    <path d="M9 18v-2"></path>
    <path d="M15 18v-3"></path>
    <circle cx="17.5" cy="17.5" r="2.5"></circle>
    <path d="M17.5 15v-1.5a1 1 0 0 0-1-1h-1a1 1 0 0 0-1 1V15"></path>
</svg>