<svg xmlns="http://www.w3.org/2000/svg" width="662" height="662" viewBox="0 0 662 662" fill="none"><path d="M590.11 426.826L391.791 312.582V22.306L590.11 136.711V426.826Z" fill="#A4D4ED"></path><path opacity="0.72" d="M556.278 245.484C552.089 233.416 549.834 221.348 545.323 209.28C540.651 197.212 532.595 184.017 523.251 179.029C504.08 168.57 495.058 197.534 475.887 185.787C467.509 180.638 460.743 169.375 456.071 158.755C451.399 148.135 448.016 137.193 442.377 126.895C434.161 112.092 421.434 99.8631 409.673 95.6795C403.068 93.2659 396.946 93.5877 391.952 96.0013V312.582L590.11 426.826V298.905C575.771 284.906 563.205 265.275 556.278 245.484Z" fill="url(#paint0_linear_13_352)"></path><path opacity="0.72" d="M533.24 283.297C519.707 269.942 504.564 258.195 491.031 255.782C482.17 254.334 474.598 257.069 466.382 257.391C458.166 257.874 448.016 255.299 439.316 245.806C431.1 236.795 426.428 224.083 422.723 212.498C419.017 200.913 414.99 188.362 407.096 178.707C402.585 173.076 396.302 169.697 391.791 169.536V312.582L590.11 426.826V337.04C584.471 333.339 578.833 328.994 573.355 324.167C559.5 311.938 546.773 296.652 533.24 283.297Z" fill="url(#paint1_linear_13_352)"></path><path d="M414.184 65.7509V300.675" stroke="#02007D" stroke-width="0.882" stroke-miterlimit="10"></path><path d="M433.194 76.6925V311.616" stroke="#02007D" stroke-width="0.882" stroke-miterlimit="10"></path><path d="M452.205 87.6342V322.558" stroke="#02007D" stroke-width="0.882" stroke-miterlimit="10"></path><path d="M471.215 98.5758V333.5" stroke="#02007D" stroke-width="0.882" stroke-miterlimit="10"></path><path d="M490.225 109.518V344.441" stroke="#02007D" stroke-width="0.882" stroke-miterlimit="10"></path><path d="M509.558 120.62V355.705" stroke="#02007D" stroke-width="0.882" stroke-miterlimit="10"></path><path d="M528.89 131.884V366.807" stroke="#02007D" stroke-width="0.882" stroke-miterlimit="10"></path><path d="M548.384 142.986V377.91" stroke="#02007D" stroke-width="0.882" stroke-miterlimit="10"></path><path d="M567.716 154.089V389.174" stroke="#02007D" stroke-width="0.882" stroke-miterlimit="10"></path><path d="M525.185 277.021C525.185 274.608 526.796 273.642 528.89 274.93C530.985 276.056 532.596 278.952 532.596 281.366C532.596 283.78 530.985 284.745 528.89 283.458C526.957 282.331 525.185 279.435 525.185 277.021Z" fill="#02007D"></path><path d="M564.011 269.459C564.011 267.045 565.622 266.08 567.716 267.367C569.811 268.493 571.422 271.39 571.422 273.803C571.422 276.217 569.811 277.182 567.716 275.895C565.622 274.769 564.011 271.872 564.011 269.459Z" fill="#02007D"></path><path d="M492.888 193.617C494.352 192.773 494.349 190.03 492.881 187.49C491.412 184.95 489.035 183.576 487.571 184.42C486.107 185.264 486.111 188.008 487.579 190.547C489.047 193.087 491.424 194.461 492.888 193.617Z" fill="#02007D"></path><path d="M410.479 95.5187C410.479 93.1051 412.09 92.1397 414.184 93.4269C416.279 94.5533 417.89 97.4496 417.89 99.8632C417.89 102.277 416.279 103.242 414.184 101.955C412.251 100.829 410.479 97.9323 410.479 95.5187Z" fill="#02007D"></path><path d="M429.489 237.76C429.489 235.347 431.1 234.381 433.194 235.668C435.289 236.795 436.9 239.691 436.9 242.105C436.9 244.518 435.289 245.484 433.194 244.197C431.261 242.909 429.489 240.013 429.489 237.76Z" fill="#02007D"></path><path d="M274.99 16.9962C273.863 16.3525 272.091 16.3525 270.318 17.4789L36.2342 152.319C32.6899 154.411 29.79 159.399 29.79 163.582L30.2734 343.154C30.2734 345.246 31.0789 346.694 32.2066 347.338L38.3286 350.878C37.2008 350.234 36.3953 348.786 36.3953 346.694L35.912 167.283C35.912 163.1 38.8119 158.111 42.3562 156.02L276.601 21.0188C278.374 19.8925 279.985 19.8925 281.273 20.5361L274.99 16.9962Z" fill="url(#paint2_linear_13_352)"></path><path opacity="0.72" d="M276.602 21.0187C280.146 18.9269 283.207 20.536 283.207 24.7195L283.69 204.292C283.69 208.475 280.79 213.463 277.246 215.555L43.0007 350.556C39.4564 352.648 36.3954 351.039 36.3954 346.855L35.9121 167.283C35.9121 163.099 38.812 158.111 42.3563 156.019L276.602 21.0187Z" fill="url(#paint3_linear_13_352)"></path><path d="M100.998 183.052C100.998 185.466 100.515 188.04 99.5481 190.615L112.598 188.684C114.209 184.017 115.175 179.351 115.175 175.007L100.998 183.052Z" fill="#B5E9FE"></path><path d="M83.5989 210.567V224.566C96.6483 217.003 107.926 202.682 112.598 188.684L99.5482 190.614C96.9705 198.499 90.8486 206.383 83.5989 210.567Z" fill="#01A3F8"></path><path d="M115.014 172.593C115.014 172.271 115.014 171.788 114.853 171.467C114.853 171.306 114.853 170.984 114.692 170.823C114.692 170.662 114.692 170.662 114.692 170.501C113.725 164.226 110.503 160.042 105.831 157.95C102.287 156.502 97.9369 156.341 93.1038 157.468C92.7816 157.629 92.4594 157.629 91.9761 157.79H91.815C91.4928 157.95 91.1706 157.95 90.8483 158.111C90.6872 158.111 90.6872 158.111 90.5261 158.272C90.2039 158.433 89.8817 158.433 89.5595 158.594C89.2373 158.755 88.754 158.916 88.4318 159.077C88.2707 159.077 88.1096 159.238 87.9485 159.238C87.7874 159.238 87.6263 159.399 87.4652 159.399C87.3041 159.399 87.1429 159.559 87.1429 159.559C87.1429 159.559 86.9818 159.559 86.9818 159.72C86.8207 159.881 86.6596 159.881 86.4985 160.042C86.3374 160.042 86.3374 160.203 86.1763 160.203C86.0152 160.364 85.8541 160.364 85.5319 160.525H85.3708C85.3708 160.525 85.3708 160.525 85.2097 160.525C85.0486 160.686 84.8875 160.686 84.5653 160.847L84.4042 161.008C84.2431 161.169 83.9209 161.329 83.7598 161.329V175.328C86.4985 173.719 89.2373 172.915 91.4928 172.593C93.2649 172.432 94.7148 172.754 96.1648 173.237C99.3869 174.524 101.32 177.742 101.32 182.569L115.336 174.363C115.175 174.041 115.175 173.397 115.014 172.593Z" fill="#FF5A72"></path><path d="M67.4882 195.603C70.0659 187.879 76.349 179.834 83.5986 175.65V161.651C83.1153 161.973 82.632 162.295 81.9876 162.617C81.8265 162.778 81.5043 162.939 81.3432 163.099C81.3432 163.099 81.3432 163.099 81.1821 163.099C81.021 163.26 80.6988 163.421 80.5377 163.582C80.5377 163.582 80.5377 163.582 80.3766 163.582C80.2155 163.743 79.8933 163.904 79.7321 164.065C79.571 164.065 79.571 164.226 79.4099 164.226C68.1327 172.11 58.7886 184.983 54.4388 197.533C53.4722 200.108 52.8278 202.682 52.5056 205.257C52.5056 205.579 52.3445 205.901 52.3445 206.222V206.383C52.3445 206.866 52.1833 207.51 52.1833 207.992C52.1833 208.153 52.1833 208.475 52.1833 208.636C52.1833 208.797 52.1833 209.119 52.1833 209.28C52.1833 209.441 52.1833 209.441 52.1833 209.601C52.1833 210.084 52.1833 210.728 52.1833 211.211C52.1833 211.371 52.1833 211.693 52.1833 211.854C52.1833 212.015 52.1833 212.337 52.1833 212.498C52.1833 212.659 52.1833 212.659 52.1833 212.82C52.1833 212.981 52.1833 213.141 52.1833 213.302C52.1833 213.463 52.1833 213.624 52.1833 213.785C52.1833 214.107 52.1834 214.429 52.3445 214.59C52.9889 219.417 54.761 223.279 57.6609 225.692C57.822 225.853 57.9831 226.014 58.1442 226.014C58.1442 226.014 58.1442 226.014 58.3053 226.014C58.4664 226.175 58.6275 226.336 58.7886 226.336C58.9497 226.497 59.1108 226.658 59.2719 226.658C59.433 226.818 59.7552 226.979 60.0774 227.14C60.2386 227.14 60.3997 227.301 60.5608 227.301H60.7219C60.883 227.301 61.0441 227.462 61.2052 227.462H61.3663H61.5274C61.5274 227.462 61.6885 227.462 61.6885 227.623C61.8496 227.623 61.8496 227.623 62.0107 227.784C62.3329 227.945 62.8162 228.106 63.1384 228.106C63.2995 228.106 63.2995 228.106 63.4606 228.267C63.6217 228.267 63.7828 228.428 63.9439 228.428C64.1051 228.428 64.4273 228.588 64.5884 228.588C69.9048 229.554 76.5101 228.106 83.7597 224.083V210.084C79.7321 212.337 76.1879 213.141 73.1269 212.659C72.4825 212.498 71.9991 212.337 71.3547 212.176C68.1327 210.889 66.1994 207.671 66.1994 202.843C66.1994 202.522 66.1994 202.2 66.1994 202.039C66.1994 200.108 66.6827 197.855 67.4882 195.603Z" fill="#FACAB4"></path><path d="M192.344 128.022C192.344 127.7 192.344 127.217 192.183 126.895C192.183 126.735 192.183 126.413 192.022 126.252C192.022 126.091 192.022 126.091 192.022 125.93C191.055 119.655 187.833 115.471 183.161 113.379L173.333 129.148C176.556 130.435 178.489 133.654 178.489 138.481C178.489 140.894 178.006 143.469 177.039 146.043L190.088 144.112C191.699 139.446 192.666 134.78 192.666 130.435C192.505 129.47 192.505 128.665 192.344 128.022Z" fill="#FF5A72"></path><path d="M160.928 165.996V179.995C173.978 172.432 185.255 158.111 189.927 144.112L176.878 146.043C174.3 153.767 168.178 161.812 160.928 165.996Z" fill="#B5E9FE"></path><path d="M170.595 112.897C170.112 113.057 169.789 113.057 169.467 113.218H169.306C168.984 113.379 168.662 113.379 168.339 113.54C168.178 113.54 168.178 113.54 168.017 113.701C167.695 113.862 167.373 113.862 167.051 114.023C166.728 114.184 166.245 114.345 165.923 114.506C165.762 114.506 165.601 114.667 165.44 114.667C165.278 114.667 165.117 114.827 164.956 114.827C164.795 114.827 164.634 114.988 164.634 114.988C164.634 114.988 164.473 114.988 164.473 115.149C164.312 115.31 164.151 115.31 163.99 115.471C163.829 115.471 163.829 115.632 163.667 115.632C163.506 115.793 163.345 115.793 163.023 115.954H162.862C162.862 115.954 162.862 115.954 162.701 115.954C162.54 116.115 162.379 116.115 162.056 116.276L161.895 116.436C161.734 116.597 161.412 116.758 161.251 116.758C160.768 117.08 160.284 117.402 159.64 117.724C159.479 117.885 159.157 118.046 158.995 118.206C158.995 118.206 158.995 118.206 158.834 118.206C158.673 118.367 158.351 118.528 158.19 118.689C158.19 118.689 158.19 118.689 158.029 118.689C157.868 118.85 157.545 119.011 157.384 119.172C157.223 119.172 157.223 119.333 157.062 119.333C145.624 127.539 136.119 140.412 131.93 152.962L144.979 151.031C147.557 143.308 153.84 135.263 161.09 131.079C163.829 129.47 166.567 128.665 168.823 128.344C170.595 128.183 172.045 128.504 173.495 128.987L183.483 113.218C179.778 111.931 175.428 111.77 170.595 112.897Z" fill="#FACAB4"></path><path d="M150.296 168.409C149.651 168.249 149.168 168.088 148.524 167.927C145.302 166.639 143.368 163.421 143.368 158.594C143.368 158.272 143.368 157.95 143.368 157.79C143.529 155.698 144.013 153.284 144.818 151.031L131.769 152.962C130.802 155.537 130.158 158.111 129.836 160.686C129.836 161.008 129.675 161.33 129.675 161.651V161.812C129.675 162.295 129.513 162.939 129.513 163.421C129.513 163.582 129.513 163.904 129.513 164.065C129.513 164.226 129.513 164.548 129.513 164.709C129.513 164.869 129.513 164.869 129.513 165.03C129.513 165.513 129.513 166.157 129.513 166.639C129.513 166.8 129.513 167.122 129.513 167.283C129.513 167.444 129.513 167.766 129.513 167.927C129.513 168.088 129.513 168.088 129.513 168.249C129.513 168.409 129.513 168.57 129.513 168.731C129.513 168.892 129.513 169.053 129.513 169.214C129.513 169.536 129.513 169.858 129.675 170.018C130.319 174.846 132.091 178.707 134.991 181.121C135.152 181.282 135.313 181.443 135.474 181.443C135.474 181.443 135.474 181.443 135.635 181.443C135.796 181.604 135.958 181.765 136.119 181.765C136.28 181.926 136.441 182.087 136.602 182.087C136.763 182.247 137.085 182.408 137.408 182.569C137.569 182.569 137.73 182.73 137.891 182.73H138.052C138.213 182.73 138.374 182.891 138.535 182.891H138.696H138.857C138.857 182.891 139.019 182.891 139.019 183.052C139.18 183.052 139.18 183.052 139.341 183.213C139.663 183.374 140.146 183.535 140.468 183.535C140.63 183.535 140.63 183.535 140.791 183.696C140.952 183.696 141.113 183.856 141.274 183.856C141.435 183.856 141.757 184.017 141.918 184.017C147.235 184.983 153.84 183.535 161.09 179.512V165.513C156.901 168.249 153.357 169.053 150.296 168.409Z" fill="#01A3F8"></path><path d="M55.8889 258.839C55.8889 257.391 57.1777 255.299 58.6277 254.494C60.0776 253.69 61.3665 254.173 61.3665 255.621C61.3665 257.069 60.0776 259.161 58.6277 259.965C57.1777 260.77 55.8889 260.287 55.8889 258.839Z" fill="#B5E9FE"></path><path d="M67.9717 251.92C67.9717 250.472 69.2605 248.38 70.7104 247.576C72.1604 246.771 73.4492 247.254 73.4492 248.702C73.4492 250.15 72.1604 252.242 70.7104 253.046C69.0994 253.851 67.9717 253.368 67.9717 251.92Z" fill="#B5E9FE"></path><path d="M79.8936 245.001C79.8936 243.553 81.1824 241.461 82.6323 240.657C84.0823 239.852 85.3711 240.335 85.3711 241.783C85.3711 243.231 84.0823 245.323 82.6323 246.127C81.1824 246.932 79.8936 246.449 79.8936 245.001Z" fill="#B5E9FE"></path><path d="M91.8152 238.082C91.8152 236.634 93.104 234.542 94.554 233.738C96.0039 232.933 97.2927 233.416 97.2927 234.864C97.2927 236.312 96.0039 238.404 94.554 239.208C93.104 240.013 91.8152 239.53 91.8152 238.082Z" fill="#B5E9FE"></path><path d="M55.8889 271.712C55.8889 270.263 57.1777 268.172 58.6277 267.367C60.0776 266.563 61.3665 267.045 61.3665 268.493C61.3665 269.942 60.0776 272.033 58.6277 272.838C57.1777 273.803 55.8889 273.16 55.8889 271.712Z" fill="#B5E9FE"></path><path d="M67.9717 264.793C67.9717 263.344 69.2605 261.253 70.7104 260.448C72.1604 259.644 73.4492 260.126 73.4492 261.574C73.4492 263.023 72.1604 265.114 70.7104 265.919C69.0994 266.884 67.9717 266.241 67.9717 264.793Z" fill="#B5E9FE"></path><path d="M79.8936 257.874C79.8936 256.425 81.1824 254.334 82.6323 253.529C84.0823 252.725 85.3711 253.207 85.3711 254.656C85.3711 256.104 84.0823 258.195 82.6323 259C81.1824 259.965 79.8936 259.322 79.8936 257.874Z" fill="#B5E9FE"></path><path d="M91.8152 250.955C91.8152 249.506 93.104 247.415 94.554 246.61C96.0039 245.806 97.2927 246.288 97.2927 247.736C97.2927 249.185 96.0039 251.276 94.554 252.081C93.104 253.046 91.8152 252.403 91.8152 250.955Z" fill="#B5E9FE"></path><path d="M103.898 244.036C103.898 242.587 105.187 240.496 106.637 239.691C108.087 238.887 109.375 239.369 109.375 240.817C109.375 242.266 108.087 244.357 106.637 245.162C105.187 246.127 103.898 245.484 103.898 244.036Z" fill="#B5E9FE"></path><path d="M115.82 237.117C115.82 235.668 117.108 233.577 118.558 232.772C120.008 231.968 121.297 232.45 121.297 233.898C121.297 235.347 120.008 237.438 118.558 238.243C117.108 239.208 115.82 238.565 115.82 237.117Z" fill="#B5E9FE"></path><path d="M55.8889 284.584C55.8889 283.136 57.1777 281.044 58.6277 280.24C60.0776 279.435 61.3665 279.918 61.3665 281.366C61.3665 282.814 60.0776 284.906 58.6277 285.71C57.1777 286.676 55.8889 286.193 55.8889 284.584Z" fill="#B5E9FE"></path><path d="M67.9717 277.665C67.9717 276.217 69.2605 274.125 70.7104 273.321C72.1604 272.516 73.4492 272.999 73.4492 274.447C73.4492 275.895 72.1604 277.987 70.7104 278.791C69.0994 279.757 67.9717 279.274 67.9717 277.665Z" fill="#B5E9FE"></path><path d="M79.8936 270.746C79.8936 269.298 81.1824 267.206 82.6323 266.402C84.0823 265.597 85.3711 266.08 85.3711 267.528C85.3711 268.976 84.0823 271.068 82.6323 271.873C81.1824 272.838 79.8936 272.355 79.8936 270.746Z" fill="#B5E9FE"></path><path d="M91.8152 263.827C91.8152 262.379 93.104 260.287 94.554 259.483C96.0039 258.678 97.2927 259.161 97.2927 260.609C97.2927 262.057 96.0039 264.149 94.554 264.953C93.104 265.919 91.8152 265.436 91.8152 263.827Z" fill="#B5E9FE"></path><path d="M103.898 256.908C103.898 255.46 105.187 253.368 106.637 252.564C108.087 251.759 109.375 252.242 109.375 253.69C109.375 255.138 108.087 257.23 106.637 258.034C105.187 259 103.898 258.517 103.898 256.908Z" fill="#B5E9FE"></path><path d="M115.82 249.989C115.82 248.541 117.108 246.449 118.558 245.645C120.008 244.84 121.297 245.323 121.297 246.771C121.297 248.219 120.008 250.311 118.558 251.115C117.108 252.081 115.82 251.598 115.82 249.989Z" fill="#B5E9FE"></path><path d="M127.902 243.07C127.902 241.622 129.191 239.53 130.641 238.726C132.091 237.921 133.38 238.404 133.38 239.852C133.38 241.3 132.091 243.392 130.641 244.197C129.03 245.162 127.902 244.679 127.902 243.07Z" fill="#B5E9FE"></path><path d="M139.824 236.151C139.824 234.703 141.113 232.611 142.563 231.807C144.013 231.002 145.302 231.485 145.302 232.933C145.302 234.381 144.013 236.473 142.563 237.278C141.113 238.243 139.824 237.76 139.824 236.151Z" fill="#B5E9FE"></path><path d="M55.8889 297.457C55.8889 296.009 57.1777 293.917 58.6277 293.112C60.0776 292.308 61.3665 292.791 61.3665 294.239C61.3665 295.687 60.0776 297.779 58.6277 298.583C57.1777 299.549 55.8889 299.066 55.8889 297.457Z" fill="#B5E9FE"></path><path d="M67.9717 290.538C67.9717 289.09 69.2605 286.998 70.7104 286.193C72.1604 285.389 73.4492 285.871 73.4492 287.32C73.4492 288.768 72.1604 290.86 70.7104 291.664C69.0994 292.629 67.9717 292.147 67.9717 290.538Z" fill="#B5E9FE"></path><path d="M79.8936 283.619C79.8936 282.17 81.1824 280.079 82.6323 279.274C84.0823 278.47 85.3711 278.952 85.3711 280.401C85.3711 281.849 84.0823 283.94 82.6323 284.745C81.1824 285.71 79.8936 285.228 79.8936 283.619Z" fill="#B5E9FE"></path><path d="M91.8152 276.7C91.8152 275.252 93.104 273.16 94.554 272.355C96.0039 271.551 97.2927 272.033 97.2927 273.482C97.2927 274.93 96.0039 277.022 94.554 277.826C93.104 278.791 91.8152 278.309 91.8152 276.7Z" fill="#B5E9FE"></path><path d="M103.898 269.781C103.898 268.332 105.187 266.241 106.637 265.436C108.087 264.632 109.375 265.114 109.375 266.562C109.375 268.011 108.087 270.102 106.637 270.907C105.187 271.872 103.898 271.39 103.898 269.781Z" fill="#B5E9FE"></path><path d="M115.82 263.023C115.82 261.574 117.108 259.483 118.558 258.678C120.008 257.874 121.297 258.356 121.297 259.804C121.297 261.253 120.008 263.344 118.558 264.149C117.108 264.953 115.82 264.471 115.82 263.023Z" fill="#B5E9FE"></path><path d="M127.902 256.104C127.902 254.655 129.191 252.564 130.641 251.759C132.091 250.954 133.38 251.437 133.38 252.885C133.38 254.334 132.091 256.425 130.641 257.23C129.03 258.034 127.902 257.552 127.902 256.104Z" fill="#B5E9FE"></path><path d="M139.824 249.185C139.824 247.736 141.113 245.645 142.563 244.84C144.013 244.036 145.302 244.518 145.302 245.966C145.302 247.415 144.013 249.506 142.563 250.311C141.113 251.115 139.824 250.633 139.824 249.185Z" fill="#B5E9FE"></path><path d="M151.746 242.266C151.746 240.817 153.035 238.726 154.485 237.921C155.935 237.117 157.223 237.599 157.223 239.047C157.223 240.496 155.935 242.587 154.485 243.392C153.035 244.196 151.746 243.714 151.746 242.266Z" fill="#B5E9FE"></path><path d="M163.829 235.347C163.829 233.899 165.117 231.807 166.567 231.002C168.017 230.198 169.306 230.68 169.306 232.129C169.306 233.577 168.017 235.668 166.567 236.473C165.117 237.278 163.829 236.795 163.829 235.347Z" fill="#B5E9FE"></path><path d="M55.8889 310.49C55.8889 309.042 57.1777 306.95 58.6277 306.146C60.0776 305.341 61.3665 305.824 61.3665 307.272C61.3665 308.72 60.0776 310.812 58.6277 311.616C57.1777 312.421 55.8889 311.938 55.8889 310.49Z" fill="#B5E9FE"></path><path d="M67.9717 303.571C67.9717 302.123 69.2605 300.031 70.7104 299.227C72.1604 298.422 73.4492 298.905 73.4492 300.353C73.4492 301.801 72.1604 303.893 70.7104 304.698C69.0994 305.502 67.9717 305.019 67.9717 303.571Z" fill="#B5E9FE"></path><path d="M79.8936 296.652C79.8936 295.204 81.1824 293.112 82.6323 292.308C84.0823 291.503 85.3711 291.986 85.3711 293.434C85.3711 294.882 84.0823 296.974 82.6323 297.779C81.1824 298.583 79.8936 298.1 79.8936 296.652Z" fill="#B5E9FE"></path><path d="M91.8152 289.733C91.8152 288.285 93.104 286.193 94.554 285.389C96.0039 284.584 97.2927 285.067 97.2927 286.515C97.2927 287.963 96.0039 290.055 94.554 290.859C93.104 291.664 91.8152 291.181 91.8152 289.733Z" fill="#B5E9FE"></path><path d="M103.898 282.814C103.898 281.366 105.187 279.274 106.637 278.47C108.087 277.665 109.375 278.148 109.375 279.596C109.375 281.044 108.087 283.136 106.637 283.941C105.187 284.745 103.898 284.262 103.898 282.814Z" fill="#B5E9FE"></path><path d="M115.82 275.895C115.82 274.447 117.108 272.355 118.558 271.551C120.008 270.746 121.297 271.229 121.297 272.677C121.297 274.125 120.008 276.217 118.558 277.021C117.108 277.987 115.82 277.343 115.82 275.895Z" fill="#B5E9FE"></path><path d="M127.902 268.976C127.902 267.528 129.191 265.436 130.641 264.632C132.091 263.827 133.38 264.31 133.38 265.758C133.38 267.206 132.091 269.298 130.641 270.102C129.03 271.068 127.902 270.424 127.902 268.976Z" fill="#B5E9FE"></path><path d="M139.824 262.057C139.824 260.609 141.113 258.517 142.563 257.713C144.013 256.908 145.302 257.391 145.302 258.839C145.302 260.287 144.013 262.379 142.563 263.183C141.113 264.149 139.824 263.505 139.824 262.057Z" fill="#B5E9FE"></path><path d="M151.746 255.138C151.746 253.69 153.035 251.598 154.485 250.794C155.935 249.989 157.223 250.472 157.223 251.92C157.223 253.368 155.935 255.46 154.485 256.265C153.035 257.23 151.746 256.586 151.746 255.138Z" fill="#B5E9FE"></path><path d="M163.829 248.219C163.829 246.771 165.117 244.679 166.567 243.875C168.017 243.07 169.306 243.553 169.306 245.001C169.306 246.449 168.017 248.541 166.567 249.346C165.117 250.311 163.829 249.667 163.829 248.219Z" fill="#B5E9FE"></path><path d="M182.839 198.499L205.555 164.226L243.414 202.2L269.352 105.173L228.754 102.599L255.014 65.1073" stroke="#B5E9FE" stroke-width="1.5582" stroke-miterlimit="10"></path><path d="M177.845 201.395C177.845 198.66 180.1 195.12 182.839 193.511C185.578 191.902 187.833 192.867 187.833 195.603C187.833 198.338 185.578 201.878 182.839 203.487C180.1 205.096 177.845 204.131 177.845 201.395Z" fill="#F16422"></path><path d="M249.536 68.1645C249.536 65.4291 251.792 61.8891 254.53 60.2801C257.269 58.671 259.525 59.6364 259.525 62.3719C259.525 65.1073 257.269 68.6472 254.53 70.2563C251.792 72.0263 249.536 71.0608 249.536 68.1645Z" fill="#F16422"></path><path d="M264.358 108.069C264.358 105.334 266.613 101.794 269.352 100.185C272.091 98.5758 274.346 99.5412 274.346 102.277C274.346 105.012 272.091 108.552 269.352 110.161C266.613 111.77 264.358 110.805 264.358 108.069Z" fill="#F16422"></path><path d="M199.111 168.088C199.111 165.352 201.366 161.812 204.105 160.203C206.844 158.594 209.099 159.56 209.099 162.295C209.099 165.03 206.844 168.57 204.105 170.179C201.366 171.788 199.111 170.823 199.111 168.088Z" fill="#F16422"></path><path d="M238.42 205.096C238.42 202.361 240.676 198.821 243.414 197.212C246.153 195.603 248.409 196.568 248.409 199.303C248.409 202.039 246.153 205.579 243.414 207.188C240.676 208.797 238.42 207.992 238.42 205.096Z" fill="#F16422"></path><path d="M224.082 105.334C224.082 102.599 226.337 99.0586 229.076 97.4495C231.815 95.8404 234.07 96.8059 234.07 99.5413C234.07 102.277 231.815 105.817 229.076 107.426C226.337 109.035 224.082 108.069 224.082 105.334Z" fill="#F16422"></path><path d="M370.203 110.805C368.592 109.839 367.464 110.644 367.464 112.414C367.464 114.184 368.753 116.437 370.203 117.241C371.814 118.207 372.942 117.402 372.942 115.632C372.942 113.862 371.653 111.609 370.203 110.805Z" fill="url(#paint4_linear_13_352)"></path><path d="M370.203 136.389C368.592 135.424 367.464 136.228 367.464 137.998C367.464 139.768 368.753 142.021 370.203 142.825C371.814 143.791 372.942 142.986 372.942 141.216C372.942 139.446 371.653 137.194 370.203 136.389Z" fill="url(#paint5_linear_13_352)"></path><path d="M370.203 161.812C368.592 160.847 367.464 161.651 367.464 163.421C367.464 165.191 368.753 167.444 370.203 168.249C371.814 169.214 372.942 168.409 372.942 166.64C372.942 164.87 371.653 162.778 370.203 161.812Z" fill="url(#paint6_linear_13_352)"></path><path d="M370.203 187.396C368.592 186.431 367.464 187.236 367.464 189.005C367.464 190.775 368.753 193.028 370.203 193.833C371.814 194.798 372.942 193.994 372.942 192.224C372.942 190.454 371.653 188.362 370.203 187.396Z" fill="url(#paint7_linear_13_352)"></path><path d="M370.203 212.981C368.592 212.015 367.464 212.82 367.464 214.59C367.464 216.36 368.753 218.612 370.203 219.417C371.814 220.382 372.942 219.578 372.942 217.808C372.942 216.038 371.653 213.785 370.203 212.981Z" fill="url(#paint8_linear_13_352)"></path><path d="M352.159 75.4053C350.548 74.4399 349.42 75.2444 349.42 77.0144C349.42 78.7844 350.709 81.0371 352.159 81.8416C353.609 82.6461 354.898 82.0025 354.898 80.2325C354.898 78.4625 353.609 76.3708 352.159 75.4053Z" fill="url(#paint9_linear_13_352)"></path><path d="M352.159 100.989C350.548 100.024 349.42 100.829 349.42 102.598C349.42 104.368 350.709 106.621 352.159 107.426C353.609 108.23 354.898 107.587 354.898 105.817C354.898 104.047 353.609 101.794 352.159 100.989Z" fill="url(#paint10_linear_13_352)"></path><path d="M352.159 126.413C350.548 125.447 349.42 126.252 349.42 128.022C349.42 129.792 350.709 132.045 352.159 132.849C353.77 133.814 354.898 133.01 354.898 131.24C354.898 129.47 353.609 127.378 352.159 126.413Z" fill="url(#paint11_linear_13_352)"></path><path d="M352.159 151.997C350.548 151.032 349.42 151.836 349.42 153.606C349.42 155.376 350.709 157.629 352.159 158.433C353.77 159.399 354.898 158.594 354.898 156.824C354.898 155.054 353.609 152.962 352.159 151.997Z" fill="url(#paint12_linear_13_352)"></path><path d="M352.159 177.581C350.548 176.616 349.42 177.42 349.42 179.19C349.42 180.96 350.709 183.213 352.159 184.017C353.77 184.983 354.898 184.178 354.898 182.408C354.898 180.638 353.609 178.547 352.159 177.581Z" fill="url(#paint13_linear_13_352)"></path><path d="M298.834 115.31C297.223 116.276 296.095 118.367 296.095 120.137C296.095 121.907 297.384 122.712 298.834 121.747C300.445 120.781 301.573 118.689 301.573 116.919C301.734 115.149 300.445 114.345 298.834 115.31Z" fill="url(#paint14_linear_13_352)"></path><path d="M298.834 140.894C297.223 141.86 296.095 143.952 296.095 145.722C296.095 147.492 297.384 148.296 298.834 147.331C300.445 146.365 301.573 144.273 301.573 142.504C301.573 140.734 300.445 139.929 298.834 140.894Z" fill="url(#paint15_linear_13_352)"></path><path d="M298.834 166.318C297.223 167.283 296.095 169.375 296.095 171.145C296.095 172.915 297.384 173.719 298.834 172.754C300.445 171.789 301.573 169.697 301.573 167.927C301.734 166.157 300.445 165.513 298.834 166.318Z" fill="url(#paint16_linear_13_352)"></path><path d="M298.834 191.902C297.223 192.867 296.095 194.959 296.095 196.729C296.095 198.499 297.384 199.304 298.834 198.338C300.445 197.373 301.573 195.281 301.573 193.511C301.734 191.741 300.445 190.936 298.834 191.902Z" fill="url(#paint17_linear_13_352)"></path><path d="M298.834 217.486C297.223 218.451 296.095 220.543 296.095 222.313C296.095 224.083 297.384 224.888 298.834 223.922C300.445 222.957 301.573 220.865 301.573 219.095C301.573 217.325 300.445 216.521 298.834 217.486Z" fill="url(#paint18_linear_13_352)"></path><path d="M311.883 44.1894C310.272 45.1548 309.145 47.2466 309.145 49.0166C309.145 50.7866 310.433 51.5911 311.883 50.6257C313.494 49.6602 314.622 47.5684 314.622 45.7985C314.622 44.0285 313.494 43.3849 311.883 44.1894Z" fill="url(#paint19_linear_13_352)"></path><path d="M311.883 69.7735C310.272 70.7389 309.145 72.8307 309.145 74.6007C309.145 76.3707 310.433 77.1752 311.883 76.2098C313.494 75.2443 314.622 73.1525 314.622 71.3826C314.622 69.6126 313.494 68.969 311.883 69.7735Z" fill="url(#paint20_linear_13_352)"></path><path d="M311.883 95.3577C310.272 96.3232 309.145 98.4149 309.145 100.185C309.145 101.955 310.433 102.759 311.883 101.794C313.494 100.829 314.622 98.7368 314.622 96.9668C314.622 95.1968 313.494 94.3923 311.883 95.3577Z" fill="url(#paint21_linear_13_352)"></path><path d="M311.883 120.942C310.272 121.907 309.145 123.999 309.145 125.769C309.145 127.539 310.433 128.344 311.883 127.378C313.494 126.413 314.622 124.321 314.622 122.551C314.622 120.781 313.494 119.977 311.883 120.942Z" fill="url(#paint22_linear_13_352)"></path><path d="M311.883 146.365C310.272 147.331 309.145 149.422 309.145 151.192C309.145 152.962 310.433 153.767 311.883 152.801C313.494 151.836 314.622 149.744 314.622 147.974C314.622 146.204 313.494 145.561 311.883 146.365Z" fill="url(#paint23_linear_13_352)"></path><path d="M332.988 82.0025C331.377 82.968 330.249 85.0597 330.249 86.8297C330.249 88.5997 331.538 89.4042 332.988 88.4388C334.599 87.4733 335.727 85.3816 335.727 83.6116C335.727 81.6807 334.438 81.0371 332.988 82.0025Z" fill="url(#paint24_linear_13_352)"></path><path d="M332.988 107.426C331.377 108.391 330.249 110.483 330.249 112.253C330.249 114.023 331.538 114.827 332.988 113.862C334.438 112.897 335.727 110.805 335.727 109.035C335.727 107.265 334.438 106.621 332.988 107.426Z" fill="url(#paint25_linear_13_352)"></path><path d="M332.988 133.01C331.377 133.975 330.249 136.067 330.249 137.837C330.249 139.607 331.538 140.412 332.988 139.446C334.599 138.481 335.727 136.389 335.727 134.619C335.727 132.849 334.438 132.044 332.988 133.01Z" fill="url(#paint26_linear_13_352)"></path><path d="M332.988 158.594C331.377 159.559 330.249 161.651 330.249 163.421C330.249 165.191 331.538 165.996 332.988 165.03C334.599 164.065 335.727 161.973 335.727 160.203C335.727 158.433 334.438 157.629 332.988 158.594Z" fill="url(#paint27_linear_13_352)"></path><path d="M332.988 184.178C331.377 185.144 330.249 187.236 330.249 189.005C330.249 190.775 331.538 191.58 332.988 190.615C334.599 189.649 335.727 187.557 335.727 185.787C335.727 183.856 334.438 183.213 332.988 184.178Z" fill="url(#paint28_linear_13_352)"></path><path d="M531.952 419.424C550.962 430.366 550.962 448.065 532.113 459.007C513.263 469.949 482.654 469.949 463.643 459.007C444.633 448.065 444.633 430.366 463.482 419.424C482.331 408.482 512.941 408.482 531.952 419.424Z" fill="#254A82"></path><path d="M540.168 425.538V435.997C540.168 442.273 535.979 448.387 527.924 453.214C511.491 462.708 484.587 462.708 468.154 453.214C459.777 448.387 455.588 442.112 455.588 435.837V425.378C455.588 431.653 459.777 437.928 468.154 442.755C484.748 452.249 511.491 452.249 527.924 442.755C535.979 437.928 540.168 431.653 540.168 425.538Z" fill="#8ECDED"></path><path d="M527.601 408C544.195 417.493 544.195 433.101 527.762 442.595C511.33 452.088 484.425 452.088 467.993 442.595C451.399 433.101 451.399 417.493 467.832 408C484.264 398.506 511.008 398.506 527.601 408Z" fill="url(#paint29_linear_13_352)"></path><path d="M540.168 403.333V413.792C540.168 420.068 535.979 426.182 527.924 431.009C511.491 440.503 484.587 440.503 468.154 431.009C459.777 426.182 455.588 419.907 455.588 413.631V403.172C455.588 409.448 459.777 415.723 468.154 420.55C484.748 430.044 511.491 430.044 527.924 420.55C535.979 415.884 540.168 409.609 540.168 403.333Z" fill="#8ECDED"></path><path d="M527.601 385.955C544.195 395.449 544.195 411.057 527.762 420.55C511.33 430.044 484.425 430.044 467.993 420.55C451.399 411.057 451.399 395.449 467.832 385.955C484.264 376.462 511.008 376.462 527.601 385.955Z" fill="url(#paint30_linear_13_352)"></path><path d="M540.168 381.289V391.748C540.168 398.023 535.979 404.138 527.924 408.965C511.491 418.459 484.587 418.459 468.154 408.965C459.777 404.138 455.588 397.863 455.588 391.587V381.128C455.588 387.404 459.777 393.679 468.154 398.506C484.748 408 511.491 408 527.924 398.506C535.979 393.679 540.168 387.565 540.168 381.289Z" fill="#8ECDED"></path><path d="M527.601 363.911C544.195 373.405 544.195 389.013 527.762 398.506C511.33 408 484.425 408 467.993 398.506C451.399 389.013 451.399 373.405 467.832 363.911C484.264 354.257 511.008 354.257 527.601 363.911Z" fill="url(#paint31_linear_13_352)"></path><path d="M540.168 359.245V369.704C540.168 375.979 535.979 382.094 527.924 386.921C511.491 396.414 484.587 396.414 468.154 386.921C459.777 382.094 455.588 375.818 455.588 369.543V359.084C455.588 365.359 459.777 371.635 468.154 376.462C484.748 385.955 511.491 385.955 527.924 376.462C535.979 371.635 540.168 365.359 540.168 359.245Z" fill="#8ECDED"></path><path d="M527.601 341.706C544.195 351.2 544.195 366.808 527.762 376.301C511.33 385.795 484.425 385.795 467.993 376.301C451.399 366.808 451.399 351.2 467.832 341.706C484.264 332.213 511.008 332.213 527.601 341.706Z" fill="url(#paint32_linear_13_352)"></path><path d="M506.014 285.871L505.853 351.199L490.87 359.888L491.031 294.56L506.014 285.871Z" fill="#017ABA"></path><path d="M491.031 294.56L490.87 359.888L475.726 351.199L475.887 285.871L491.031 294.56Z" fill="#018BD4"></path><path d="M506.013 285.871L491.031 294.56L475.887 285.871L490.87 277.021L506.013 285.871Z" fill="#01A3F8"></path><path d="M527.44 329.155V361.819L512.458 370.508V337.844L527.44 329.155Z" fill="#CF2D52"></path><path d="M512.458 337.844V370.508L497.314 361.819V329.155L512.458 337.844Z" fill="#ED456B"></path><path d="M527.441 329.155L512.458 337.844L497.314 329.155L512.458 320.466L527.441 329.155Z" fill="#FF5A72"></path><path d="M498.281 355.705V368.738L483.298 377.427V364.394L498.281 355.705Z" fill="#E08D46"></path><path d="M483.298 364.394V377.427L468.154 368.738V355.705L483.298 364.394Z" fill="#FFA04F"></path><path d="M498.28 355.705L483.298 364.394L468.154 355.705L483.137 346.855L498.28 355.705Z" fill="#FFB06D"></path><path d="M278.052 458.846C284.496 462.547 284.496 468.662 278.052 472.362L177.523 530.772C171.078 534.472 160.607 534.472 154.162 530.772L52.9891 472.362C46.545 468.662 46.545 462.547 52.9891 458.846L153.518 400.437C159.962 396.736 170.434 396.736 176.878 400.437L278.052 458.846Z" fill="url(#paint33_linear_13_352)"></path><path d="M273.702 459.329L177.039 515.325C170.917 518.864 160.929 518.864 154.646 515.325L57.4999 459.329C54.4389 457.559 52.8279 455.145 52.8279 452.732V461.582C52.8279 463.995 54.4389 466.248 57.4999 468.179L154.646 524.174C160.929 527.714 170.917 527.714 177.039 524.174L273.702 468.179C276.763 466.409 278.374 464.156 278.374 461.743V452.893C278.212 455.145 276.763 457.559 273.702 459.329Z" fill="url(#paint34_linear_13_352)"></path><path d="M273.54 446.296C279.823 449.835 279.823 455.628 273.54 459.168L176.878 515.164C170.756 518.704 160.768 518.704 154.485 515.164L57.3388 459.168C51.0557 455.628 51.0557 449.835 57.3388 446.296L154.001 390.3C160.123 386.76 170.112 386.76 176.395 390.3L273.54 446.296Z" fill="url(#paint35_linear_13_352)"></path><path d="M273.702 430.688L177.039 486.683C170.917 490.223 160.929 490.223 154.646 486.683L57.4999 430.688C54.4389 428.918 52.8279 426.504 52.8279 424.09V432.94C52.8279 435.354 54.4389 437.607 57.4999 439.537L154.646 495.533C160.929 499.073 170.917 499.073 177.039 495.533L273.702 439.537C276.763 437.768 278.374 435.515 278.374 433.101V424.251C278.212 426.504 276.763 428.918 273.702 430.688Z" fill="url(#paint36_linear_13_352)"></path><path d="M273.54 417.654C279.823 421.194 279.823 426.987 273.54 430.527L176.878 486.522C170.756 490.062 160.768 490.062 154.485 486.522L57.3388 430.527C51.0557 426.987 51.0557 421.194 57.3388 417.654L154.001 361.659C160.123 358.119 170.112 358.119 176.395 361.659L273.54 417.654Z" fill="url(#paint37_linear_13_352)"></path><path d="M228.753 444.687C230.177 444.687 231.331 444.038 231.331 443.238C231.331 442.439 230.177 441.79 228.753 441.79C227.33 441.79 226.176 442.439 226.176 443.238C226.176 444.038 227.33 444.687 228.753 444.687Z" fill="#FF5A72"></path><path d="M238.259 437.768C237.292 437.124 237.292 436.319 238.259 435.676C239.225 435.032 240.836 435.032 241.964 435.676C242.931 436.319 242.931 437.124 241.964 437.768C240.836 438.411 239.225 438.411 238.259 437.768Z" fill="#FF5A72"></path><path d="M249.697 431.17C248.73 430.527 248.73 429.722 249.697 429.079C250.664 428.435 252.275 428.435 253.402 429.079C254.369 429.722 254.369 430.527 253.402 431.17C252.275 431.814 250.664 431.814 249.697 431.17Z" fill="#FF5A72"></path><path d="M262.747 425.056C264.17 425.056 265.324 424.407 265.324 423.608C265.324 422.808 264.17 422.16 262.747 422.16C261.323 422.16 260.169 422.808 260.169 423.608C260.169 424.407 261.323 425.056 262.747 425.056Z" fill="#FF5A72"></path><path d="M423.851 549.919C430.295 553.62 430.295 559.735 423.851 563.436L323.322 621.845C316.878 625.546 306.406 625.546 299.962 621.845L198.788 563.436C192.344 559.735 192.344 553.62 198.788 549.919L299.317 491.51C305.762 487.809 316.233 487.809 322.677 491.51L423.851 549.919Z" fill="url(#paint38_linear_13_352)"></path><path d="M419.501 550.241L322.838 606.237C316.716 609.777 306.728 609.777 300.445 606.237L203.299 550.241C200.238 548.471 198.627 546.058 198.627 543.644V552.494C198.627 554.907 200.238 557.16 203.299 559.091L300.445 615.087C306.728 618.626 316.716 618.626 322.838 615.087L419.501 559.091C422.562 557.321 424.173 555.068 424.173 552.655V543.805C424.012 546.218 422.562 548.471 419.501 550.241Z" fill="url(#paint39_linear_13_352)"></path><path d="M419.34 537.369C425.623 540.909 425.623 546.701 419.34 550.241L322.677 606.237C316.555 609.777 306.567 609.777 300.284 606.237L203.138 550.241C196.855 546.701 196.855 540.909 203.138 537.369L299.801 481.373C305.922 477.833 315.911 477.833 322.194 481.373L419.34 537.369Z" fill="url(#paint40_linear_13_352)"></path><path d="M310.433 603.019C309.467 602.375 309.467 601.57 310.433 600.927C311.4 600.283 313.011 600.283 314.139 600.927C315.105 601.57 315.105 602.375 314.139 603.019C313.172 603.501 311.561 603.501 310.433 603.019Z" fill="#FF5A72"></path><path d="M323.644 596.904C325.068 596.904 326.222 596.256 326.222 595.456C326.222 594.656 325.068 594.008 323.644 594.008C322.22 594.008 321.066 594.656 321.066 595.456C321.066 596.256 322.22 596.904 323.644 596.904Z" fill="#FF5A72"></path><path d="M335.082 590.307C336.506 590.307 337.66 589.659 337.66 588.859C337.66 588.059 336.506 587.411 335.082 587.411C333.659 587.411 332.505 588.059 332.505 588.859C332.505 589.659 333.659 590.307 335.082 590.307Z" fill="#FF5A72"></path><path d="M346.36 583.71C347.783 583.71 348.937 583.061 348.937 582.262C348.937 581.462 347.783 580.813 346.36 580.813C344.936 580.813 343.782 581.462 343.782 582.262C343.782 583.061 344.936 583.71 346.36 583.71Z" fill="#FF5A72"></path><path d="M433.517 358.762C439.961 362.463 439.961 368.578 433.517 372.278L332.988 430.688C326.544 434.388 316.072 434.388 309.628 430.688L208.616 372.278C202.171 368.578 202.171 362.463 208.616 358.762L309.145 300.353C315.589 296.652 326.06 296.652 332.505 300.353L433.517 358.762Z" fill="url(#paint41_linear_13_352)"></path><path d="M429.167 359.245L332.505 415.24C326.383 418.78 316.395 418.78 310.112 415.24L213.127 359.245C210.066 357.475 208.455 355.061 208.455 352.648V361.498C208.455 363.911 210.066 366.164 213.127 368.095L310.273 424.09C316.556 427.63 326.544 427.63 332.666 424.09L429.329 368.095C432.39 366.325 434.001 364.072 434.001 361.658V352.809C433.839 355.061 432.228 357.475 429.167 359.245Z" fill="url(#paint42_linear_13_352)"></path><path d="M429.167 346.211C435.45 349.751 435.45 355.544 429.167 359.084L332.505 415.08C326.383 418.619 316.394 418.619 310.111 415.08L213.127 359.245C206.844 355.705 206.844 349.912 213.127 346.372L309.789 290.377C315.911 286.837 325.899 286.837 332.182 290.377L429.167 346.211Z" fill="url(#paint43_linear_13_352)"></path><path d="M429.167 330.443L332.666 386.599C326.544 390.139 316.556 390.139 310.273 386.599L213.127 330.604C210.066 328.834 208.455 326.42 208.455 324.006V332.856C208.455 335.27 210.066 337.523 213.127 339.453L310.273 395.449C316.556 398.989 326.544 398.989 332.666 395.449L429.329 339.453C432.39 337.683 434.001 335.431 434.001 333.017V324.167C433.839 326.42 432.228 328.673 429.167 330.443Z" fill="url(#paint44_linear_13_352)"></path><path d="M429.167 317.57C435.45 321.11 435.45 326.903 429.167 330.443L332.666 386.599C326.544 390.139 316.555 390.139 310.272 386.599L213.127 330.604C206.844 327.064 206.844 321.271 213.127 317.731L309.789 261.735C315.911 258.195 325.899 258.195 332.182 261.735L429.167 317.57Z" fill="url(#paint45_linear_13_352)"></path><path d="M429.167 301.801L332.505 357.797C326.383 361.337 316.394 361.337 310.111 357.797L212.965 301.801C209.904 300.031 208.293 297.618 208.293 295.204V304.054C208.293 306.467 209.904 308.72 212.965 310.651L310.111 366.647C316.394 370.187 326.383 370.187 332.505 366.647L429.167 310.651C432.228 308.881 433.839 306.628 433.839 304.215V295.365C433.839 297.618 432.228 299.87 429.167 301.801Z" fill="url(#paint46_linear_13_352)"></path><path d="M429.167 288.768C435.45 292.308 435.45 298.1 429.167 301.64L332.504 357.636C326.382 361.176 316.394 361.176 310.111 357.636L212.965 301.64C206.682 298.1 206.682 292.308 212.965 288.768L309.628 232.772C315.75 229.232 325.738 229.232 332.021 232.772L429.167 288.768Z" fill="url(#paint47_linear_13_352)"></path><path d="M292.551 281.205L283.69 286.354L262.102 273.803L270.802 268.815L292.551 281.205Z" fill="#F16422"></path><path d="M319.133 277.343L310.272 282.492L278.696 264.31L287.395 259.161L319.133 277.343Z" fill="#FF5A72"></path><path d="M358.12 280.722L349.259 285.871L295.29 254.655L304.15 249.506L358.12 280.722Z" fill="#01A3F8"></path><path d="M387.28 278.309L378.419 283.458L311.883 245.162L320.744 240.013L387.28 278.309Z" fill="#FF5A72"></path><path d="M320.583 352.004C322.007 352.004 323.161 351.356 323.161 350.556C323.161 349.756 322.007 349.108 320.583 349.108C319.159 349.108 318.005 349.756 318.005 350.556C318.005 351.356 319.159 352.004 320.583 352.004Z" fill="#FF5A72"></path><path d="M332.021 345.568C333.445 345.568 334.599 344.92 334.599 344.12C334.599 343.32 333.445 342.672 332.021 342.672C330.598 342.672 329.444 343.32 329.444 344.12C329.444 344.92 330.598 345.568 332.021 345.568Z" fill="#FF5A72"></path><path d="M343.299 338.971C344.722 338.971 345.876 338.322 345.876 337.522C345.876 336.723 344.722 336.074 343.299 336.074C341.875 336.074 340.721 336.723 340.721 337.522C340.721 338.322 341.875 338.971 343.299 338.971Z" fill="#FF5A72"></path><path d="M354.737 332.374C356.161 332.374 357.315 331.725 357.315 330.925C357.315 330.126 356.161 329.477 354.737 329.477C353.313 329.477 352.159 330.126 352.159 330.925C352.159 331.725 353.313 332.374 354.737 332.374Z" fill="#FF5A72"></path><path d="M446.244 530.932C445.439 531.415 445.439 532.22 446.244 532.702C447.05 533.185 448.499 533.185 449.305 532.702C450.111 532.22 450.111 531.415 449.305 530.932C448.499 530.45 447.211 530.45 446.244 530.932Z" fill="#FF5A72"></path><path d="M459.777 539.943C460.934 539.943 461.871 539.367 461.871 538.656C461.871 537.945 460.934 537.369 459.777 537.369C458.62 537.369 457.683 537.945 457.683 538.656C457.683 539.367 458.62 539.943 459.777 539.943Z" fill="#FF5A72"></path><path d="M471.699 546.862C472.855 546.862 473.793 546.286 473.793 545.575C473.793 544.864 472.855 544.288 471.699 544.288C470.542 544.288 469.604 544.864 469.604 545.575C469.604 546.286 470.542 546.862 471.699 546.862Z" fill="#FF5A72"></path><path d="M483.781 553.781C484.938 553.781 485.875 553.205 485.875 552.494C485.875 551.783 484.938 551.207 483.781 551.207C482.624 551.207 481.687 551.783 481.687 552.494C481.687 553.205 482.624 553.781 483.781 553.781Z" fill="#FF5A72"></path><path d="M494.092 558.447C493.286 558.93 493.286 559.735 494.092 560.217C494.897 560.7 496.347 560.7 497.153 560.217C497.958 559.735 497.958 558.93 497.153 558.447C496.347 557.965 495.059 557.965 494.092 558.447Z" fill="#FF5A72"></path><path d="M72.6437 529.162C71.8382 529.645 71.8382 530.45 72.6437 530.932C73.4492 531.415 74.8991 531.415 75.7047 530.932C76.5102 530.45 76.5102 529.645 75.7047 529.162C74.8991 528.68 73.4492 528.68 72.6437 529.162Z" fill="#FF5A72"></path><path d="M86.1764 538.173C87.3331 538.173 88.2707 537.597 88.2707 536.886C88.2707 536.175 87.3331 535.599 86.1764 535.599C85.0197 535.599 84.082 536.175 84.082 536.886C84.082 537.597 85.0197 538.173 86.1764 538.173Z" fill="#FF5A72"></path><path d="M96.6483 542.839C95.8428 543.322 95.8428 544.127 96.6483 544.609C97.4539 545.092 98.9038 545.092 99.7093 544.609C100.515 544.127 100.515 543.322 99.7093 542.839C98.7427 542.357 97.4539 542.357 96.6483 542.839Z" fill="#FF5A72"></path><path d="M110.02 552.011C111.176 552.011 112.114 551.435 112.114 550.724C112.114 550.013 111.176 549.437 110.02 549.437C108.863 549.437 107.925 550.013 107.925 550.724C107.925 551.435 108.863 552.011 110.02 552.011Z" fill="#FF5A72"></path><path d="M122.103 558.93C123.259 558.93 124.197 558.354 124.197 557.643C124.197 556.932 123.259 556.356 122.103 556.356C120.946 556.356 120.008 556.932 120.008 557.643C120.008 558.354 120.946 558.93 122.103 558.93Z" fill="#FF5A72"></path><path d="M332.182 466.087C333.339 466.087 334.277 465.511 334.277 464.8C334.277 464.089 333.339 463.512 332.182 463.512C331.026 463.512 330.088 464.089 330.088 464.8C330.088 465.511 331.026 466.087 332.182 466.087Z" fill="#FF5A72"></path><path d="M342.493 470.753C341.687 471.236 341.687 472.04 342.493 472.523C343.298 473.006 344.748 473.006 345.554 472.523C346.359 472.04 346.359 471.236 345.554 470.753C344.748 470.27 343.459 470.27 342.493 470.753Z" fill="#FF5A72"></path><path d="M354.576 477.672C353.77 478.155 353.77 478.959 354.576 479.442C355.381 479.925 356.831 479.925 357.637 479.442C358.442 478.959 358.442 478.155 357.637 477.672C356.67 477.19 355.381 477.19 354.576 477.672Z" fill="#FF5A72"></path><path d="M366.497 484.591C365.692 485.074 365.692 485.879 366.497 486.361C367.303 486.844 368.753 486.844 369.558 486.361C370.364 485.879 370.364 485.074 369.558 484.591C368.753 484.109 367.303 484.109 366.497 484.591Z" fill="#FF5A72"></path><path d="M378.419 491.51C377.614 491.993 377.614 492.797 378.419 493.28C379.225 493.763 380.675 493.763 381.48 493.28C382.286 492.797 382.286 491.993 381.48 491.51C380.675 491.027 379.225 491.027 378.419 491.51Z" fill="#FF5A72"></path><path d="M192.666 574.86C193.823 574.86 194.76 574.284 194.76 573.573C194.76 572.862 193.823 572.286 192.666 572.286C191.509 572.286 190.572 572.862 190.572 573.573C190.572 574.284 191.509 574.86 192.666 574.86Z" fill="#FF5A72"></path><path d="M204.588 581.779C205.744 581.779 206.682 581.203 206.682 580.492C206.682 579.781 205.744 579.204 204.588 579.204C203.431 579.204 202.493 579.781 202.493 580.492C202.493 581.203 203.431 581.779 204.588 581.779Z" fill="#FF5A72"></path><path d="M215.06 586.445C214.254 586.928 214.254 587.733 215.06 588.215C215.865 588.698 217.315 588.698 218.121 588.215C218.926 587.733 218.926 586.928 218.121 586.445C217.315 585.963 215.865 585.963 215.06 586.445Z" fill="#FF5A72"></path><path d="M228.592 595.456C229.749 595.456 230.687 594.88 230.687 594.169C230.687 593.458 229.749 592.882 228.592 592.882C227.436 592.882 226.498 593.458 226.498 594.169C226.498 594.88 227.436 595.456 228.592 595.456Z" fill="#FF5A72"></path><path d="M239.064 600.283C238.259 600.766 238.259 601.57 239.064 602.053C239.87 602.536 241.32 602.536 242.125 602.053C242.931 601.57 242.931 600.766 242.125 600.283C241.158 599.8 239.87 599.8 239.064 600.283Z" fill="#FF5A72"></path><path d="M615.242 516.773C614.437 516.29 612.987 516.29 612.181 516.773C611.376 517.255 611.376 518.06 612.181 518.543C612.987 519.025 614.437 519.025 615.242 518.543C616.048 518.06 616.048 517.255 615.242 516.773Z" fill="#FF5A72"></path><path d="M603.159 523.852C602.354 523.37 600.904 523.37 600.098 523.852C599.293 524.335 599.293 525.14 600.098 525.622C600.904 526.105 602.354 526.105 603.159 525.622C604.126 525.14 604.126 524.335 603.159 523.852Z" fill="#FF5A72"></path><path d="M591.238 530.771C590.432 530.289 588.982 530.289 588.177 530.771C587.371 531.254 587.371 532.059 588.177 532.541C588.982 533.024 590.432 533.024 591.238 532.541C592.043 532.059 592.043 531.254 591.238 530.771Z" fill="#FF5A72"></path><path d="M577.544 539.782C578.7 539.782 579.638 539.206 579.638 538.495C579.638 537.784 578.7 537.208 577.544 537.208C576.387 537.208 575.449 537.784 575.449 538.495C575.449 539.206 576.387 539.782 577.544 539.782Z" fill="#FF5A72"></path><path d="M565.461 546.862C566.618 546.862 567.555 546.286 567.555 545.575C567.555 544.864 566.618 544.288 565.461 544.288C564.304 544.288 563.367 544.864 563.367 545.575C563.367 546.286 564.304 546.862 565.461 546.862Z" fill="#FF5A72"></path><path d="M417.406 418.619C416.601 418.137 415.151 418.137 414.345 418.619C413.54 419.102 413.54 419.907 414.345 420.389C415.151 420.872 416.601 420.872 417.406 420.389C418.373 419.907 418.373 419.102 417.406 418.619Z" fill="#FF5A72"></path><path d="M405.323 425.538C404.518 425.056 403.068 425.056 402.262 425.538C401.457 426.021 401.457 426.826 402.262 427.308C403.068 427.791 404.518 427.791 405.323 427.308C406.29 426.826 406.29 426.021 405.323 425.538Z" fill="#FF5A72"></path><path d="M393.401 432.618C392.596 432.136 391.146 432.136 390.34 432.618C389.535 433.101 389.535 433.906 390.34 434.388C391.146 434.871 392.596 434.871 393.401 434.388C394.207 433.745 394.207 433.101 393.401 432.618Z" fill="#FF5A72"></path><path d="M379.708 441.629C380.865 441.629 381.802 441.053 381.802 440.342C381.802 439.631 380.865 439.055 379.708 439.055C378.551 439.055 377.614 439.631 377.614 440.342C377.614 441.053 378.551 441.629 379.708 441.629Z" fill="#FF5A72"></path><path d="M367.786 448.548C368.943 448.548 369.881 447.972 369.881 447.261C369.881 446.55 368.943 445.974 367.786 445.974C366.63 445.974 365.692 446.55 365.692 447.261C365.692 447.972 366.63 448.548 367.786 448.548Z" fill="#FF5A72"></path><path d="M545.323 518.06C545.645 517.738 546.129 517.577 546.451 517.255C546.612 517.094 546.934 516.934 547.095 516.773C547.256 516.612 547.256 516.612 547.417 516.451C558.211 508.084 559.5 496.981 551.445 487.97C551.123 487.649 550.962 487.488 550.639 487.166C550.639 487.166 550.639 487.166 550.478 487.005C550.156 486.683 549.995 486.522 549.673 486.2L549.512 486.039C549.19 485.879 549.028 485.557 548.706 485.396C548.384 485.074 548.062 484.752 547.74 484.591C547.578 484.43 547.417 484.43 547.417 484.27C547.256 484.109 547.095 484.109 546.934 483.948C546.773 483.787 546.773 483.787 546.612 483.626L546.451 483.465C546.29 483.304 546.129 483.143 545.967 483.143C545.806 483.143 545.806 482.982 545.645 482.982C545.484 482.821 545.323 482.66 545.001 482.66L544.84 482.5C544.84 482.5 544.84 482.5 544.679 482.5C544.518 482.339 544.356 482.178 544.034 482.178L543.873 482.017C543.712 481.856 543.39 481.695 543.229 481.534C542.745 481.212 542.101 480.89 541.618 480.569C541.295 480.408 541.134 480.247 540.812 480.247C540.812 480.247 540.812 480.247 540.651 480.247C540.329 480.086 540.168 479.925 539.845 479.925C539.845 479.925 539.845 479.925 539.684 479.925C539.362 479.764 539.201 479.603 538.879 479.603C538.718 479.603 538.718 479.442 538.557 479.442C522.446 472.202 499.892 472.041 483.298 478.638C482.976 478.799 482.492 478.96 482.17 479.12H482.009C481.365 479.442 480.72 479.603 480.237 479.925C479.915 480.086 479.754 480.247 479.431 480.247C479.27 480.408 478.948 480.408 478.787 480.569C478.626 480.569 478.626 480.73 478.465 480.73C477.82 481.051 477.337 481.373 476.854 481.695C476.532 481.856 476.37 482.017 476.048 482.178C475.887 482.339 475.565 482.5 475.404 482.66C475.243 482.66 475.082 482.821 475.082 482.821C474.921 482.982 474.759 482.982 474.598 483.143C474.437 483.304 474.276 483.304 474.115 483.465C473.793 483.626 473.471 483.787 473.309 484.109C468.476 487.649 465.254 491.671 463.965 496.016C463.965 496.177 463.804 496.498 463.804 496.659V496.82C463.804 496.981 463.643 497.303 463.643 497.464C463.643 497.786 463.482 497.947 463.482 498.268C463.482 498.59 463.321 498.912 463.321 499.234C463.321 499.395 463.321 499.556 463.321 499.717V499.877C463.321 500.038 463.321 500.199 463.321 500.36V500.521C463.321 500.682 463.321 500.843 463.321 501.004C463.321 501.165 463.321 501.165 463.321 501.326C463.321 501.808 463.321 502.291 463.482 502.774C463.482 502.935 463.482 502.935 463.482 503.096C463.482 503.256 463.482 503.417 463.643 503.578C463.643 503.9 463.804 504.061 463.804 504.383C465.093 510.015 469.604 515.485 477.176 519.83C495.542 530.45 525.185 530.45 543.551 519.83C543.712 519.025 544.517 518.543 545.323 518.06ZM491.192 510.98C487.003 508.566 484.587 505.509 483.781 502.452C482.815 497.947 485.231 493.28 491.192 489.901C491.514 489.74 491.836 489.579 492.159 489.419C502.308 484.109 518.096 484.27 527.924 489.901C530.824 491.51 532.918 493.602 534.207 495.694C537.268 500.843 535.173 506.957 527.924 511.141C517.774 516.934 501.342 516.934 491.192 510.98Z" fill="#B5E9FE"></path><path d="M547.417 484.43C547.256 484.27 546.934 484.109 546.773 483.948C546.29 483.626 545.806 483.304 545.323 482.821C545.162 482.66 545.001 482.5 544.679 482.5L544.517 482.339C544.517 482.339 544.517 482.339 544.356 482.339C544.195 482.178 544.034 482.017 543.712 482.017L543.551 481.856C543.39 481.695 543.068 481.534 542.906 481.373C542.423 481.051 541.779 480.73 541.295 480.408C540.973 480.247 540.812 480.086 540.49 480.086C540.49 480.086 540.49 480.086 540.329 480.086H540.168C539.845 479.925 539.684 479.764 539.362 479.764C539.04 479.603 538.879 479.442 538.557 479.442C538.234 479.281 537.912 479.121 537.751 479.121C537.429 478.96 537.268 478.96 536.946 478.799H536.784C536.623 478.638 536.301 478.638 536.14 478.477C535.979 478.477 535.979 478.477 535.818 478.316C535.657 478.316 535.496 478.155 535.335 478.155C535.173 478.155 535.012 477.994 534.69 477.994H534.529C534.207 477.833 534.046 477.833 533.723 477.672H533.562C533.24 477.511 532.918 477.511 532.757 477.351H532.596C532.274 477.19 532.112 477.19 531.79 477.19C531.629 477.19 531.629 477.19 531.468 477.19C531.146 477.19 530.985 477.029 530.662 477.029H530.501C530.179 477.029 530.018 476.868 529.696 476.868H529.535C529.213 476.707 528.89 476.707 528.568 476.546C527.44 476.224 526.474 476.063 525.346 475.902C525.024 475.902 524.702 475.741 524.218 475.741C511.169 473.328 496.67 474.293 484.909 478.477C484.587 478.638 484.265 478.638 483.942 478.799C483.298 479.12 482.654 479.281 482.009 479.603C481.687 479.764 481.526 479.764 481.204 479.925C481.204 479.925 481.204 479.925 481.042 479.925C480.72 480.086 480.398 480.247 480.076 480.408C479.754 480.569 479.431 480.73 479.109 480.89C478.948 481.051 478.626 481.051 478.465 481.212C478.304 481.212 478.304 481.373 478.143 481.373C477.498 481.695 477.015 482.017 476.532 482.339C476.209 482.5 476.048 482.66 475.726 482.821C475.565 482.982 475.243 483.143 475.082 483.304C474.92 483.304 474.759 483.465 474.759 483.465C474.598 483.626 474.437 483.626 474.276 483.787C474.115 483.948 473.954 483.948 473.793 484.109C473.471 484.27 473.148 484.43 472.987 484.752C468.154 488.292 465.093 492.315 463.643 496.659C463.643 496.82 463.482 497.142 463.482 497.303V497.464C463.482 497.625 463.321 497.947 463.321 498.107C463.321 498.429 463.16 498.59 463.16 498.912C463.16 499.234 462.999 499.556 462.999 499.877C462.999 500.038 462.999 500.199 462.999 500.36V500.521C462.999 500.682 462.999 500.843 462.999 501.004V501.165C462.999 501.326 462.999 501.487 462.999 501.647C462.999 501.808 462.999 501.808 462.999 501.969C462.999 502.452 462.999 502.935 463.16 503.417C463.16 503.578 463.16 503.578 463.16 503.739C463.16 503.9 463.16 504.061 463.321 504.222C463.321 504.544 463.482 504.705 463.482 505.027L484.265 503.417C483.298 498.912 485.714 494.246 491.675 490.867C491.998 490.706 492.32 490.545 492.642 490.384C502.791 485.074 518.58 485.235 528.407 490.867C529.857 491.671 531.146 492.637 532.274 493.602L552.25 489.419C550.639 487.005 549.189 485.718 547.417 484.43Z" fill="#F16422"></path><path d="M545.323 518.06C556.278 510.658 559.178 500.521 554.022 491.832C553.378 490.706 552.572 489.579 551.767 488.614L531.79 492.797C532.757 493.763 533.562 494.728 534.207 495.855C537.268 501.004 535.173 507.118 527.924 511.302L542.745 519.83C543.712 519.025 544.517 518.543 545.323 518.06Z" fill="#FF5A72"></path><path d="M385.025 579.044L430.134 605.593L512.136 559.091L336.532 456.272L411.285 412.505L380.514 395.288" stroke="#B5E9FE" stroke-width="1.5587" stroke-miterlimit="10" stroke-linecap="round" stroke-linejoin="round"></path><path d="M392.919 488.775L465.577 446.939" stroke="#B5E9FE" stroke-width="1.5582" stroke-miterlimit="10" stroke-linecap="round" stroke-linejoin="round"></path><path d="M523.252 455.467L632.641 518.542L410.801 645.176L341.043 604.467" stroke="#B5E9FE" stroke-width="1.5582" stroke-miterlimit="10" stroke-linecap="round" stroke-linejoin="round"></path><path d="M110.825 498.912L77.7991 518.06L241.481 612.351L268.546 596.743" stroke="#B5E9FE" stroke-width="1.5582" stroke-miterlimit="10" stroke-linecap="round" stroke-linejoin="round"></path><path d="M164.956 293.112C162.218 294.239 159.801 294.239 158.029 293.112C155.29 291.342 154.646 286.837 151.101 286.193C146.913 285.389 140.469 291.181 137.085 297.135C133.702 303.088 132.736 309.203 132.091 314.835C131.447 320.466 130.802 326.259 127.902 332.374C125.003 338.488 119.203 344.924 114.37 345.568C108.409 346.372 107.603 338.81 103.737 335.592C99.7092 332.374 92.1373 334.626 85.532 339.936C78.9268 345.246 73.127 352.97 69.2605 360.854C67.8106 363.75 66.5218 366.808 65.394 369.704V404.299L164.956 346.855V293.112Z" fill="url(#paint48_linear_13_352)"></path><path d="M65.394 404.299V427.148L164.956 369.704V346.855L65.394 404.299Z" fill="url(#paint49_linear_13_352)"></path><path opacity="0.72" d="M192.344 312.904C189.605 314.03 187.189 314.03 185.417 312.904C182.678 311.134 182.033 306.628 178.489 305.985C174.3 305.18 167.856 310.973 164.473 316.926C161.09 322.88 160.123 328.994 159.479 334.626C158.834 340.258 158.19 346.051 155.29 352.165C152.39 358.279 146.59 364.716 141.757 365.359C135.797 366.164 134.991 358.601 131.125 355.383C127.097 352.165 119.525 354.418 112.92 359.728C106.314 365.038 100.515 372.761 96.6482 380.646C95.1983 383.542 93.9095 386.599 92.7817 389.495V423.929L192.344 366.486V312.904Z" fill="url(#paint50_linear_13_352)"></path><path d="M92.7817 424.09V446.939L192.344 389.495V366.647L92.7817 424.09Z" fill="url(#paint51_linear_13_352)"></path><path d="M339.271 514.359L274.507 552.011C271.124 553.942 265.646 553.942 262.263 552.011L237.453 537.69C235.681 536.725 234.875 535.438 234.875 534.151V543.161C234.875 544.449 235.681 545.736 237.453 546.701L262.263 561.022C265.646 562.953 271.124 562.953 274.507 561.022L339.271 523.37C340.882 522.404 341.687 521.117 341.849 519.83V510.819C341.687 512.106 340.882 513.394 339.271 514.359Z" fill="url(#paint52_linear_13_352)"></path><path d="M339.11 507.279C342.493 509.21 342.493 512.428 339.11 514.359L274.346 552.011C270.963 553.942 265.485 553.942 262.102 552.011L237.292 537.69C233.909 535.76 233.909 532.541 237.292 530.611L302.056 492.958C305.439 491.028 310.917 491.028 314.3 492.958L339.11 507.279Z" fill="url(#paint53_linear_13_352)"></path><path d="M268.063 541.07C269.487 541.07 270.641 540.421 270.641 539.621C270.641 538.822 269.487 538.173 268.063 538.173C266.639 538.173 265.485 538.822 265.485 539.621C265.485 540.421 266.639 541.07 268.063 541.07Z" fill="#B5E9FE"></path><path d="M279.34 534.633C280.764 534.633 281.918 533.985 281.918 533.185C281.918 532.385 280.764 531.737 279.34 531.737C277.917 531.737 276.763 532.385 276.763 533.185C276.763 533.985 277.917 534.633 279.34 534.633Z" fill="#B5E9FE"></path><path d="M289.006 527.553C288.04 526.91 288.04 526.105 289.006 525.462C289.973 524.818 291.584 524.818 292.712 525.462C293.678 526.105 293.678 526.91 292.712 527.553C291.584 528.197 289.973 528.197 289.006 527.553Z" fill="#B5E9FE"></path><path d="M300.284 521.117C299.317 520.474 299.317 519.669 300.284 519.025C301.25 518.382 302.861 518.382 303.989 519.025C304.956 519.669 304.956 520.474 303.989 521.117C303.023 521.6 301.412 521.6 300.284 521.117Z" fill="#B5E9FE"></path><path d="M381.48 543.805C389.858 548.632 390.019 556.517 381.641 561.505C373.264 566.332 359.57 566.332 351.193 561.505C342.815 556.678 342.654 548.793 351.031 543.805C359.409 538.978 372.942 538.978 381.48 543.805Z" fill="url(#paint54_linear_13_352)"></path><path d="M387.763 468.501V468.179C387.763 468.179 387.763 468.179 387.763 468.501C387.602 465.283 385.508 462.064 381.48 459.651C373.103 454.824 359.409 454.824 351.032 459.651C347.004 462.064 344.91 465.122 344.748 468.179V468.018L344.426 553.138C344.426 556.356 346.521 559.574 350.709 561.988C359.087 566.815 372.781 566.815 381.158 561.988C385.347 559.574 387.441 556.356 387.441 553.299L387.763 468.501Z" fill="url(#paint55_linear_13_352)"></path><path d="M328.96 574.377C333.632 577.113 333.632 581.296 328.96 584.032C324.449 586.767 316.877 586.767 312.367 584.032C307.695 581.296 307.695 577.113 312.367 574.377C316.877 571.803 324.288 571.803 328.96 574.377Z" fill="url(#paint56_linear_13_352)"></path><path d="M332.343 533.185C332.343 531.415 331.216 529.645 328.799 528.358C324.127 525.623 316.716 525.623 312.205 528.358C309.95 529.645 308.822 531.415 308.822 533.024C308.822 533.024 308.822 533.024 308.822 532.863L308.661 579.365C308.661 581.135 309.789 582.905 312.205 584.193C316.877 586.928 324.288 586.928 328.799 584.193C331.055 582.905 332.182 581.135 332.182 579.365L332.343 533.185Z" fill="url(#paint57_linear_13_352)"></path><path d="M522.285 491.028C529.213 495.05 529.374 501.647 522.446 505.67C515.519 509.693 504.241 509.693 497.153 505.67C490.225 501.647 490.064 495.05 496.992 491.028C504.08 487.005 515.358 487.005 522.285 491.028Z" fill="url(#paint58_linear_13_352)"></path><path d="M527.601 428.435V428.113C527.601 428.274 527.601 428.274 527.601 428.435C527.601 425.699 525.829 423.125 522.285 421.194C515.358 417.171 503.919 417.171 496.992 421.194C493.609 423.125 491.836 425.699 491.836 428.274V428.113L491.675 498.59C491.675 501.326 493.447 503.9 496.992 505.992C503.919 510.015 515.358 510.015 522.285 505.992C525.668 504.061 527.44 501.326 527.44 498.751L527.601 428.435Z" fill="url(#paint59_linear_13_352)"></path><path d="M361.503 209.28C361.503 209.28 362.631 218.13 359.086 221.67C355.542 225.049 346.037 225.37 349.259 208.958" stroke="white" stroke-width="3.5457" stroke-miterlimit="10" stroke-linecap="round" stroke-linejoin="round"></path><path d="M353.287 201.234C352.32 200.752 351.193 201.073 350.548 201.878L347.97 205.257C347.004 206.705 347.487 208.636 348.937 209.441C350.548 210.245 352.481 209.441 352.965 207.832L354.253 203.809C354.737 202.843 354.253 201.717 353.287 201.234Z" fill="#FAB08B"></path><path d="M376.808 306.789C376.808 306.789 377.775 309.364 376.808 310.329C375.519 311.777 370.364 317.409 366.497 318.375C362.631 319.179 363.114 316.444 364.564 314.835C368.753 310.007 370.364 308.559 371.814 306.95C373.425 305.18 376.002 305.502 376.808 306.789Z" fill="#162D4F"></path><path d="M373.908 307.272L373.586 296.813" stroke="#D6E9F4" stroke-width="2.5327" stroke-miterlimit="10" stroke-linecap="round" stroke-linejoin="round"></path><path d="M364.242 303.088C364.242 303.088 365.209 305.824 364.081 306.307C362.309 306.95 355.381 308.398 351.354 308.237C347.809 308.077 349.42 305.18 351.354 304.537C356.831 302.606 358.925 302.123 360.859 301.479C362.631 300.836 364.242 301.801 364.242 303.088Z" fill="#162D4F"></path><path d="M361.986 301.158L361.664 290.859" stroke="#D6E9F4" stroke-width="2.5327" stroke-miterlimit="10" stroke-linecap="round" stroke-linejoin="round"></path><path d="M358.442 249.345C358.281 249.024 358.12 248.702 358.12 248.38C357.959 245.645 357.153 240.174 359.087 239.53C361.02 239.047 377.613 244.518 377.613 244.518C377.613 244.518 379.869 250.794 377.13 254.655L375.68 276.056L377.13 303.732C377.13 305.019 376.164 306.146 374.875 306.146L372.78 306.306C371.492 306.306 370.364 305.341 370.364 304.054L368.914 275.895V255.621C367.947 255.138 366.82 254.655 365.692 254.012L363.759 270.585L365.208 297.778C365.37 299.387 364.081 300.675 362.47 300.836H361.503C359.892 300.997 358.603 299.709 358.442 298.1L356.992 270.424L358.442 249.345Z" fill="#162D4F"></path><path d="M357.798 240.978C357.798 242.587 358.603 244.196 360.053 245.162C363.275 247.415 368.914 250.311 371.814 250.633C379.064 251.598 379.708 246.932 379.708 246.932C379.708 246.932 379.547 218.29 378.419 212.337C377.936 209.119 375.358 207.51 372.781 205.901C372.458 205.74 372.136 205.418 371.814 205.257C369.881 204.131 367.625 203.326 365.37 203.326C364.725 203.326 364.242 203.326 363.759 203.487C361.181 203.97 360.053 205.579 359.248 206.705C358.764 207.51 358.442 208.475 358.442 209.441L357.798 240.978Z" fill="#B5E9FE"></path><path d="M371.814 204.131C371.814 204.131 371.814 203.487 368.592 203.165L368.431 206.383L371.653 205.901L371.814 204.131Z" fill="#98E1ED"></path><path d="M368.27 199.143V204.613" stroke="#FAB08B" stroke-width="3.5457" stroke-miterlimit="10" stroke-linecap="round" stroke-linejoin="round"></path><path d="M366.014 206.383L361.181 223.118L363.92 228.749L367.786 224.083L368.27 206.866L366.014 206.383Z" fill="#FF5A72"></path><path d="M371.814 204.131L372.136 207.027C372.136 207.027 370.847 209.923 370.203 210.889L367.303 206.705C367.142 206.866 368.753 206.544 371.814 204.131Z" fill="white"></path><path d="M365.37 204.935C365.37 204.935 366.014 206.383 367.464 206.705L363.92 208.636C363.92 208.636 364.081 205.096 364.564 203.809C364.403 203.97 364.886 203.487 365.37 204.935Z" fill="white"></path><path d="M360.053 191.902C358.442 196.568 359.892 202.039 363.598 203.326C364.081 203.487 364.725 203.648 365.209 203.648C367.786 203.648 370.525 201.717 372.297 198.821C372.781 198.016 373.103 197.373 373.425 196.407C373.425 196.246 373.425 196.246 373.586 196.085C373.586 195.764 373.747 195.603 373.747 195.281C374.392 192.224 373.747 189.649 372.136 187.718C371.653 187.075 371.008 186.592 370.364 186.27C370.042 186.109 369.881 185.948 369.558 185.948C366.659 184.983 363.598 186.109 361.503 188.845C360.859 189.81 360.376 190.775 360.053 191.902Z" fill="#FAB08B"></path><path d="M373.425 196.407C373.425 196.407 372.136 199.143 371.008 197.855C369.881 196.568 372.297 193.028 372.136 192.224C372.136 191.419 370.686 189.005 366.981 189.971C363.275 190.936 360.537 189.81 361.342 188.04C363.275 184.017 371.169 180.477 374.069 188.684C374.069 188.684 378.58 192.867 373.425 196.407Z" fill="#162D4F"></path><path d="M372.136 196.246C371.33 197.051 371.008 198.499 371.653 199.143C372.297 199.786 373.747 199.625 374.553 198.66C375.358 197.855 375.519 196.568 374.875 195.925C374.069 195.281 372.941 195.281 372.136 196.246Z" fill="#FAB08B"></path><path d="M371.008 199.464C371.008 199.464 371.492 200.43 370.525 201.556C369.075 203.004 366.336 205.579 362.148 204.292C357.798 203.004 359.409 195.603 359.409 195.442C359.409 195.281 359.409 199.947 361.664 200.108C363.114 200.269 363.275 203.004 366.981 200.269C369.397 198.499 370.203 198.177 371.008 199.464Z" fill="#162D4F"></path><path d="M365.37 201.878C365.37 201.878 365.047 198.499 363.275 197.534C361.503 196.568 358.764 198.982 359.409 199.786C360.053 200.591 361.181 197.855 362.309 198.338C363.436 198.821 363.436 202.683 365.37 201.878Z" fill="#162D4F"></path><path d="M376.808 211.532C376.808 211.532 386.474 216.521 388.73 223.279C390.824 229.232 388.569 233.416 383.091 241.461" stroke="white" stroke-width="3.5457" stroke-miterlimit="10" stroke-linecap="round" stroke-linejoin="round"></path><path d="M376.003 247.897C376.647 248.702 377.936 248.702 378.741 248.219L382.125 245.966C383.574 245.001 383.736 243.07 382.608 241.783C381.48 240.496 379.386 240.657 378.419 241.944L376.003 245.162C375.358 245.966 375.358 247.093 376.003 247.897Z" fill="#FAB08B"></path><path d="M130.963 353.613C130.963 353.613 141.757 352.326 146.268 346.855C150.296 342.028 149.651 337.201 147.396 327.868" stroke="white" stroke-width="3.5457" stroke-miterlimit="10" stroke-linecap="round" stroke-linejoin="round"></path><path d="M143.207 319.501C144.174 319.018 145.301 319.34 145.785 320.144L148.04 323.524C149.007 324.972 148.523 326.903 146.912 327.546C145.463 328.351 143.529 327.546 143.046 325.937L141.918 322.075C141.757 320.949 142.24 319.984 143.207 319.501Z" fill="#FAB08B"></path><path d="M116.302 452.249C116.302 452.249 115.336 454.823 116.302 455.789C117.591 457.237 122.747 462.869 126.613 463.834C130.48 464.639 129.996 461.903 128.546 460.294C124.358 455.467 122.747 454.019 121.297 452.41C119.686 450.801 116.947 450.962 116.302 452.249Z" fill="#162D4F"></path><path d="M119.202 452.732L119.525 442.434" stroke="#D6E9F4" stroke-width="2.5327" stroke-miterlimit="10" stroke-linecap="round" stroke-linejoin="round"></path><path d="M128.869 448.548C128.869 448.548 127.902 451.284 129.03 451.766C130.802 452.41 137.729 453.858 141.757 453.697C145.301 453.536 143.69 450.64 141.757 449.996C136.28 448.065 134.185 447.583 132.252 446.939C130.319 446.295 128.869 447.261 128.869 448.548Z" fill="#162D4F"></path><path d="M131.124 446.778L131.446 436.319" stroke="#D6E9F4" stroke-width="2.5327" stroke-miterlimit="10" stroke-linecap="round" stroke-linejoin="round"></path><path d="M134.668 394.805C134.829 394.483 134.991 394.162 134.991 393.84C135.152 391.104 135.957 385.634 134.024 384.99C132.091 384.507 115.497 389.978 115.497 389.978C115.497 389.978 113.242 396.253 115.98 400.115L117.43 421.516L115.98 449.192C115.98 450.479 116.947 451.605 118.236 451.605L120.33 451.766C121.619 451.766 122.747 450.801 122.747 449.514L124.197 421.355V401.081C125.163 400.598 126.291 400.115 127.419 399.471L129.352 416.045L128.063 443.399C127.902 445.008 129.191 446.295 130.802 446.456H131.769C133.38 446.617 134.668 445.33 134.829 443.721L136.279 416.045L134.668 394.805Z" fill="#162D4F"></path><path d="M135.313 386.599C135.313 388.208 134.507 389.817 133.058 390.783C129.835 393.035 124.197 395.932 121.297 396.253C114.047 397.219 113.403 392.552 113.403 392.552C113.403 392.552 113.564 363.911 114.692 357.958C115.175 354.739 117.753 353.13 120.33 351.521C120.653 351.36 120.975 351.039 121.297 350.878C123.23 349.751 125.486 348.947 127.741 348.947C128.386 348.947 128.869 348.947 129.352 349.108C131.93 349.59 133.058 351.199 133.863 352.326C134.346 353.13 134.669 354.096 134.669 355.061L135.313 386.599Z" fill="#B5E9FE"></path><path d="M121.297 349.751C121.297 349.751 121.297 349.108 124.519 348.786L124.68 352.004L121.458 351.521L121.297 349.751Z" fill="#98E1ED"></path><path d="M124.842 344.602V350.073" stroke="#FAB08B" stroke-width="3.5457" stroke-miterlimit="10" stroke-linecap="round" stroke-linejoin="round"></path><path d="M127.097 352.004L131.93 368.578L129.191 374.209L125.325 369.704L124.842 352.326L127.097 352.004Z" fill="#FF5A72"></path><path d="M121.297 349.751L120.975 352.648C120.975 352.648 122.264 355.544 122.908 356.51L125.808 352.326C125.969 352.326 124.197 352.004 121.297 349.751Z" fill="white"></path><path d="M127.741 350.556C127.741 350.556 127.097 352.004 125.647 352.326L129.191 354.257C129.191 354.257 129.03 350.717 128.547 349.43C128.708 349.43 128.225 348.947 127.741 350.556Z" fill="white"></path><path d="M133.058 337.362C134.669 342.028 133.219 347.499 129.514 348.786C129.03 348.947 128.386 349.108 127.903 349.108C125.325 349.108 122.586 347.177 120.814 344.281C120.331 343.476 120.009 342.832 119.686 341.867C119.686 341.706 119.686 341.706 119.525 341.545C119.525 341.223 119.364 341.062 119.364 340.741C118.72 337.683 119.364 335.109 120.975 333.178C121.458 332.534 122.103 332.052 122.747 331.73C123.07 331.569 123.231 331.408 123.553 331.408C126.453 330.443 129.514 331.569 131.608 334.304C132.252 335.431 132.736 336.235 133.058 337.362Z" fill="#FAB08B"></path><path d="M119.686 342.028C119.686 342.028 120.975 344.763 122.103 343.476C123.392 342.028 120.814 338.649 120.975 337.844C120.975 337.04 122.425 334.626 126.13 335.592C129.836 336.557 132.575 335.431 131.769 333.661C129.836 329.638 121.942 326.098 119.042 334.304C119.042 334.143 114.531 338.488 119.686 342.028Z" fill="#162D4F"></path><path d="M120.975 341.706C121.781 342.511 122.103 343.959 121.458 344.602C120.814 345.246 119.364 345.085 118.558 344.12C117.753 343.315 117.592 342.028 118.236 341.384C118.881 340.741 120.17 340.902 120.975 341.706Z" fill="#FAB08B"></path><path d="M116.786 359.728C116.786 359.728 115.981 370.508 120.33 376.14C124.197 380.967 129.03 381.45 138.857 381.128" stroke="white" stroke-width="3.5457" stroke-miterlimit="10" stroke-linecap="round" stroke-linejoin="round"></path><path d="M147.718 378.554C148.04 379.519 147.396 380.645 146.429 380.967L142.724 382.576C141.113 383.22 139.341 382.415 139.018 380.645C138.535 379.036 139.824 377.427 141.435 377.266L145.463 376.945C146.59 376.945 147.557 377.588 147.718 378.554Z" fill="#FAB08B"></path><path d="M427.395 484.27C427.395 484.27 417.406 488.614 410.801 486.04C404.84 483.948 398.235 477.512 395.335 468.179" stroke="white" stroke-width="3.5457" stroke-miterlimit="10" stroke-linecap="round" stroke-linejoin="round"></path><path d="M394.046 460.777C393.08 460.938 392.274 461.743 392.113 462.708L391.791 466.731C391.63 468.34 393.08 469.788 394.691 469.627C396.302 469.466 397.591 467.857 397.107 466.248L396.141 462.225C395.98 461.421 395.013 460.616 394.046 460.777Z" fill="#FAB08B"></path><path d="M442.538 583.227C442.538 583.227 443.505 585.802 442.538 586.767C441.249 588.215 436.094 593.847 432.228 594.812C428.361 595.617 428.844 592.882 430.294 591.272C434.483 586.445 436.094 584.997 437.544 583.388C439.155 581.618 441.733 581.94 442.538 583.227Z" fill="#162D4F"></path><path d="M439.638 583.71L439.316 573.251" stroke="#D6E9F4" stroke-width="2.5327" stroke-miterlimit="10" stroke-linecap="round" stroke-linejoin="round"></path><path d="M429.972 579.526C429.972 579.526 430.939 582.262 429.811 582.744C428.039 583.388 421.112 584.836 417.084 584.675C413.54 584.514 415.151 581.618 417.084 580.974C422.562 579.044 424.656 578.561 426.589 577.917C428.522 577.274 429.972 578.239 429.972 579.526Z" fill="#162D4F"></path><path d="M427.717 577.595L427.395 567.297" stroke="#D6E9F4" stroke-width="2.5327" stroke-miterlimit="10" stroke-linecap="round" stroke-linejoin="round"></path><path d="M424.173 525.783C424.012 525.462 423.85 525.14 423.85 524.818C423.689 522.083 422.884 516.612 424.817 515.968C426.75 515.485 443.344 520.956 443.344 520.956C443.344 520.956 445.599 527.232 442.861 531.093L441.411 552.494L442.861 580.17C442.861 581.457 441.894 582.584 440.605 582.584L438.511 582.744C437.222 582.744 436.094 581.779 436.094 580.492L434.644 552.333V532.059C433.678 531.576 432.55 531.093 431.422 530.45L429.489 547.023L430.939 574.216C431.1 575.825 429.811 577.113 428.2 577.274H427.234C425.623 577.435 424.334 576.147 424.173 574.538L422.723 546.862L424.173 525.783Z" fill="#162D4F"></path><path d="M423.528 517.416C423.528 519.025 424.334 520.634 425.784 521.6C429.006 523.852 434.645 526.749 437.544 527.071C444.794 528.036 445.438 523.37 445.438 523.37C445.438 523.37 445.277 494.728 444.15 488.775C443.666 485.557 441.089 483.948 438.511 482.339C438.189 482.178 437.867 481.856 437.544 481.695C435.611 480.569 433.356 479.764 431.1 479.764C430.456 479.764 429.973 479.764 429.489 479.925C426.912 480.408 425.784 482.017 424.978 483.143C424.495 483.948 424.173 484.913 424.173 485.879L423.528 517.416Z" fill="#B5E9FE"></path><path d="M437.545 480.568C437.545 480.568 437.545 479.925 434.322 479.603L434.161 482.821L437.383 482.338L437.545 480.568Z" fill="#98E1ED"></path><path d="M434 475.581V481.051" stroke="#FAB08B" stroke-width="3.5457" stroke-miterlimit="10" stroke-linecap="round" stroke-linejoin="round"></path><path d="M431.745 482.821L426.912 499.556L429.65 505.187L433.517 500.521L434 483.304L431.745 482.821Z" fill="#FF5A72"></path><path d="M437.544 480.569L437.867 483.465C437.867 483.465 436.578 486.361 435.933 487.327L433.033 483.143C432.872 483.304 434.483 482.982 437.544 480.569Z" fill="white"></path><path d="M431.1 481.373C431.1 481.373 431.745 482.821 433.195 483.143L429.65 485.074C429.65 485.074 429.812 481.534 430.295 480.247C430.134 480.408 430.617 479.925 431.1 481.373Z" fill="white"></path><path d="M425.784 468.34C424.172 473.006 425.622 478.477 429.328 479.764C429.811 479.925 430.456 480.086 430.939 480.086C433.517 480.086 436.255 478.155 438.027 475.259C438.511 474.454 438.833 473.81 439.155 472.845C439.155 472.684 439.155 472.684 439.316 472.523C439.316 472.201 439.477 472.04 439.477 471.719C440.122 468.661 439.477 466.087 437.866 464.156C437.383 463.512 436.739 463.03 436.094 462.708C435.772 462.547 435.611 462.386 435.289 462.386C432.389 461.421 429.328 462.547 427.233 465.282C426.589 466.248 426.106 467.213 425.784 468.34Z" fill="#FAB08B"></path><path d="M439.155 472.845C439.155 472.845 437.866 475.58 436.738 474.293C435.45 472.845 438.027 469.466 437.866 468.661C437.866 467.857 436.416 465.443 432.711 466.409C429.006 467.374 426.267 466.248 427.072 464.478C429.006 460.455 436.9 456.915 439.799 465.122C439.799 465.122 444.31 469.305 439.155 472.845Z" fill="#162D4F"></path><path d="M437.866 472.684C437.061 473.489 436.739 474.937 437.383 475.581C438.028 476.224 439.477 476.063 440.283 475.098C441.088 474.293 441.25 473.006 440.605 472.362C439.8 471.719 438.672 471.719 437.866 472.684Z" fill="#FAB08B"></path><path d="M426.106 474.776C426.106 474.776 427.072 473.489 428.683 473.971C430.294 474.454 431.422 474.937 431.422 476.546C431.422 478.155 431.1 477.833 429.972 476.546C429.006 475.259 429.006 475.58 427.878 475.58C426.589 475.741 424.817 476.707 426.106 474.776Z" fill="#162D4F"></path><path d="M440.928 490.706C440.928 490.706 437.867 501.165 431.745 504.705C426.267 507.923 417.084 509.049 408.062 505.348" stroke="white" stroke-width="3.5457" stroke-miterlimit="10" stroke-linecap="round" stroke-linejoin="round"></path><path d="M401.779 501.647C401.135 502.452 401.296 503.578 402.101 504.383L405.001 507.118C406.29 508.245 408.223 508.084 409.19 506.636C410.157 505.187 409.673 503.256 408.062 502.613L404.357 500.843C403.39 500.36 402.263 500.682 401.779 501.647Z" fill="#FAB08B"></path><defs><linearGradient id="paint0_linear_13_352" x1="391.816" y1="198.622" x2="590.19" y2="198.622" gradientUnits="userSpaceOnUse"><stop stop-color="#FF5A72"></stop><stop offset="0.1515" stop-color="#FF6971"></stop><stop offset="0.7206" stop-color="#FF9C6E"></stop><stop offset="1" stop-color="#FFB06D"></stop></linearGradient><linearGradient id="paint1_linear_13_352" x1="391.816" y1="240.083" x2="590.19" y2="240.083" gradientUnits="userSpaceOnUse"><stop stop-color="#FF5A72"></stop><stop offset="0.1515" stop-color="#FF6971"></stop><stop offset="0.7206" stop-color="#FF9C6E"></stop><stop offset="1" stop-color="#FFB06D"></stop></linearGradient><linearGradient id="paint2_linear_13_352" x1="29.79" y1="183.741" x2="281.17" y2="183.741" gradientUnits="userSpaceOnUse"><stop stop-color="white"></stop><stop offset="1" stop-color="#A4D4ED"></stop></linearGradient><linearGradient id="paint3_linear_13_352" x1="35.9442" y1="110.962" x2="283.79" y2="110.962" gradientUnits="userSpaceOnUse"><stop stop-color="#FF5A72"></stop><stop offset="0.1515" stop-color="#FF6971"></stop><stop offset="0.7206" stop-color="#FF9C6E"></stop><stop offset="1" stop-color="#FFB06D"></stop></linearGradient><linearGradient id="paint4_linear_13_352" x1="370.148" y1="-10.1536" x2="370.148" y2="226.18" gradientUnits="userSpaceOnUse"><stop stop-color="#02007D"></stop><stop offset="0.00373083" stop-color="#02017D"></stop><stop offset="0.1941" stop-color="#13238D"></stop><stop offset="0.3881" stop-color="#203E99"></stop><stop offset="0.5851" stop-color="#2951A1"></stop><stop offset="0.7867" stop-color="#2E5CA6"></stop><stop offset="1" stop-color="#3060A8"></stop></linearGradient><linearGradient id="paint5_linear_13_352" x1="370.148" y1="-10.1524" x2="370.148" y2="226.179" gradientUnits="userSpaceOnUse"><stop stop-color="#02007D"></stop><stop offset="0.00373083" stop-color="#02017D"></stop><stop offset="0.1941" stop-color="#13238D"></stop><stop offset="0.3881" stop-color="#203E99"></stop><stop offset="0.5851" stop-color="#2951A1"></stop><stop offset="0.7867" stop-color="#2E5CA6"></stop><stop offset="1" stop-color="#3060A8"></stop></linearGradient><linearGradient id="paint6_linear_13_352" x1="370.148" y1="-10.1518" x2="370.148" y2="226.179" gradientUnits="userSpaceOnUse"><stop stop-color="#02007D"></stop><stop offset="0.00373083" stop-color="#02017D"></stop><stop offset="0.1941" stop-color="#13238D"></stop><stop offset="0.3881" stop-color="#203E99"></stop><stop offset="0.5851" stop-color="#2951A1"></stop><stop offset="0.7867" stop-color="#2E5CA6"></stop><stop offset="1" stop-color="#3060A8"></stop></linearGradient><linearGradient id="paint7_linear_13_352" x1="370.148" y1="-10.154" x2="370.148" y2="226.179" gradientUnits="userSpaceOnUse"><stop stop-color="#02007D"></stop><stop offset="0.00373083" stop-color="#02017D"></stop><stop offset="0.1941" stop-color="#13238D"></stop><stop offset="0.3881" stop-color="#203E99"></stop><stop offset="0.5851" stop-color="#2951A1"></stop><stop offset="0.7867" stop-color="#2E5CA6"></stop><stop offset="1" stop-color="#3060A8"></stop></linearGradient><linearGradient id="paint8_linear_13_352" x1="370.148" y1="-10.1535" x2="370.148" y2="226.18" gradientUnits="userSpaceOnUse"><stop stop-color="#02007D"></stop><stop offset="0.00373083" stop-color="#02017D"></stop><stop offset="0.1941" stop-color="#13238D"></stop><stop offset="0.3881" stop-color="#203E99"></stop><stop offset="0.5851" stop-color="#2951A1"></stop><stop offset="0.7867" stop-color="#2E5CA6"></stop><stop offset="1" stop-color="#3060A8"></stop></linearGradient><linearGradient id="paint9_linear_13_352" x1="352.103" y1="-10.1533" x2="352.103" y2="226.18" gradientUnits="userSpaceOnUse"><stop stop-color="#02007D"></stop><stop offset="0.00373083" stop-color="#02017D"></stop><stop offset="0.1941" stop-color="#13238D"></stop><stop offset="0.3881" stop-color="#203E99"></stop><stop offset="0.5851" stop-color="#2951A1"></stop><stop offset="0.7867" stop-color="#2E5CA6"></stop><stop offset="1" stop-color="#3060A8"></stop></linearGradient><linearGradient id="paint10_linear_13_352" x1="352.103" y1="-10.1539" x2="352.103" y2="226.18" gradientUnits="userSpaceOnUse"><stop stop-color="#02007D"></stop><stop offset="0.00373083" stop-color="#02017D"></stop><stop offset="0.1941" stop-color="#13238D"></stop><stop offset="0.3881" stop-color="#203E99"></stop><stop offset="0.5851" stop-color="#2951A1"></stop><stop offset="0.7867" stop-color="#2E5CA6"></stop><stop offset="1" stop-color="#3060A8"></stop></linearGradient><linearGradient id="paint11_linear_13_352" x1="352.103" y1="-10.152" x2="352.103" y2="226.179" gradientUnits="userSpaceOnUse"><stop stop-color="#02007D"></stop><stop offset="0.00373083" stop-color="#02017D"></stop><stop offset="0.1941" stop-color="#13238D"></stop><stop offset="0.3881" stop-color="#203E99"></stop><stop offset="0.5851" stop-color="#2951A1"></stop><stop offset="0.7867" stop-color="#2E5CA6"></stop><stop offset="1" stop-color="#3060A8"></stop></linearGradient><linearGradient id="paint12_linear_13_352" x1="352.103" y1="-10.1522" x2="352.103" y2="226.179" gradientUnits="userSpaceOnUse"><stop stop-color="#02007D"></stop><stop offset="0.00373083" stop-color="#02017D"></stop><stop offset="0.1941" stop-color="#13238D"></stop><stop offset="0.3881" stop-color="#203E99"></stop><stop offset="0.5851" stop-color="#2951A1"></stop><stop offset="0.7867" stop-color="#2E5CA6"></stop><stop offset="1" stop-color="#3060A8"></stop></linearGradient><linearGradient id="paint13_linear_13_352" x1="352.103" y1="-10.1543" x2="352.103" y2="226.179" gradientUnits="userSpaceOnUse"><stop stop-color="#02007D"></stop><stop offset="0.00373083" stop-color="#02017D"></stop><stop offset="0.1941" stop-color="#13238D"></stop><stop offset="0.3881" stop-color="#203E99"></stop><stop offset="0.5851" stop-color="#2951A1"></stop><stop offset="0.7867" stop-color="#2E5CA6"></stop><stop offset="1" stop-color="#3060A8"></stop></linearGradient><linearGradient id="paint14_linear_13_352" x1="298.881" y1="-10.1536" x2="298.881" y2="226.18" gradientUnits="userSpaceOnUse"><stop stop-color="#02007D"></stop><stop offset="0.00373083" stop-color="#02017D"></stop><stop offset="0.1941" stop-color="#13238D"></stop><stop offset="0.3881" stop-color="#203E99"></stop><stop offset="0.5851" stop-color="#2951A1"></stop><stop offset="0.7867" stop-color="#2E5CA6"></stop><stop offset="1" stop-color="#3060A8"></stop></linearGradient><linearGradient id="paint15_linear_13_352" x1="298.881" y1="-10.1537" x2="298.881" y2="226.18" gradientUnits="userSpaceOnUse"><stop stop-color="#02007D"></stop><stop offset="0.00373083" stop-color="#02017D"></stop><stop offset="0.1941" stop-color="#13238D"></stop><stop offset="0.3881" stop-color="#203E99"></stop><stop offset="0.5851" stop-color="#2951A1"></stop><stop offset="0.7867" stop-color="#2E5CA6"></stop><stop offset="1" stop-color="#3060A8"></stop></linearGradient><linearGradient id="paint16_linear_13_352" x1="298.881" y1="-10.1534" x2="298.881" y2="226.18" gradientUnits="userSpaceOnUse"><stop stop-color="#02007D"></stop><stop offset="0.00373083" stop-color="#02017D"></stop><stop offset="0.1941" stop-color="#13238D"></stop><stop offset="0.3881" stop-color="#203E99"></stop><stop offset="0.5851" stop-color="#2951A1"></stop><stop offset="0.7867" stop-color="#2E5CA6"></stop><stop offset="1" stop-color="#3060A8"></stop></linearGradient><linearGradient id="paint17_linear_13_352" x1="298.881" y1="-10.1537" x2="298.881" y2="226.18" gradientUnits="userSpaceOnUse"><stop stop-color="#02007D"></stop><stop offset="0.00373083" stop-color="#02017D"></stop><stop offset="0.1941" stop-color="#13238D"></stop><stop offset="0.3881" stop-color="#203E99"></stop><stop offset="0.5851" stop-color="#2951A1"></stop><stop offset="0.7867" stop-color="#2E5CA6"></stop><stop offset="1" stop-color="#3060A8"></stop></linearGradient><linearGradient id="paint18_linear_13_352" x1="298.881" y1="-10.1527" x2="298.881" y2="226.179" gradientUnits="userSpaceOnUse"><stop stop-color="#02007D"></stop><stop offset="0.00373083" stop-color="#02017D"></stop><stop offset="0.1941" stop-color="#13238D"></stop><stop offset="0.3881" stop-color="#203E99"></stop><stop offset="0.5851" stop-color="#2951A1"></stop><stop offset="0.7867" stop-color="#2E5CA6"></stop><stop offset="1" stop-color="#3060A8"></stop></linearGradient><linearGradient id="paint19_linear_13_352" x1="311.877" y1="-10.1535" x2="311.877" y2="226.18" gradientUnits="userSpaceOnUse"><stop stop-color="#02007D"></stop><stop offset="0.00373083" stop-color="#02017D"></stop><stop offset="0.1941" stop-color="#13238D"></stop><stop offset="0.3881" stop-color="#203E99"></stop><stop offset="0.5851" stop-color="#2951A1"></stop><stop offset="0.7867" stop-color="#2E5CA6"></stop><stop offset="1" stop-color="#3060A8"></stop></linearGradient><linearGradient id="paint20_linear_13_352" x1="311.877" y1="-10.1524" x2="311.877" y2="226.179" gradientUnits="userSpaceOnUse"><stop stop-color="#02007D"></stop><stop offset="0.00373083" stop-color="#02017D"></stop><stop offset="0.1941" stop-color="#13238D"></stop><stop offset="0.3881" stop-color="#203E99"></stop><stop offset="0.5851" stop-color="#2951A1"></stop><stop offset="0.7867" stop-color="#2E5CA6"></stop><stop offset="1" stop-color="#3060A8"></stop></linearGradient><linearGradient id="paint21_linear_13_352" x1="311.877" y1="-10.1527" x2="311.877" y2="226.178" gradientUnits="userSpaceOnUse"><stop stop-color="#02007D"></stop><stop offset="0.00373083" stop-color="#02017D"></stop><stop offset="0.1941" stop-color="#13238D"></stop><stop offset="0.3881" stop-color="#203E99"></stop><stop offset="0.5851" stop-color="#2951A1"></stop><stop offset="0.7867" stop-color="#2E5CA6"></stop><stop offset="1" stop-color="#3060A8"></stop></linearGradient><linearGradient id="paint22_linear_13_352" x1="311.877" y1="-10.1541" x2="311.877" y2="226.179" gradientUnits="userSpaceOnUse"><stop stop-color="#02007D"></stop><stop offset="0.00373083" stop-color="#02017D"></stop><stop offset="0.1941" stop-color="#13238D"></stop><stop offset="0.3881" stop-color="#203E99"></stop><stop offset="0.5851" stop-color="#2951A1"></stop><stop offset="0.7867" stop-color="#2E5CA6"></stop><stop offset="1" stop-color="#3060A8"></stop></linearGradient><linearGradient id="paint23_linear_13_352" x1="311.877" y1="-10.1537" x2="311.877" y2="226.18" gradientUnits="userSpaceOnUse"><stop stop-color="#02007D"></stop><stop offset="0.00373083" stop-color="#02017D"></stop><stop offset="0.1941" stop-color="#13238D"></stop><stop offset="0.3881" stop-color="#203E99"></stop><stop offset="0.5851" stop-color="#2951A1"></stop><stop offset="0.7867" stop-color="#2E5CA6"></stop><stop offset="1" stop-color="#3060A8"></stop></linearGradient><linearGradient id="paint24_linear_13_352" x1="332.926" y1="-10.1538" x2="332.926" y2="226.18" gradientUnits="userSpaceOnUse"><stop stop-color="#02007D"></stop><stop offset="0.00373083" stop-color="#02017D"></stop><stop offset="0.1941" stop-color="#13238D"></stop><stop offset="0.3881" stop-color="#203E99"></stop><stop offset="0.5851" stop-color="#2951A1"></stop><stop offset="0.7867" stop-color="#2E5CA6"></stop><stop offset="1" stop-color="#3060A8"></stop></linearGradient><linearGradient id="paint25_linear_13_352" x1="332.926" y1="-10.1535" x2="332.926" y2="226.18" gradientUnits="userSpaceOnUse"><stop stop-color="#02007D"></stop><stop offset="0.00373083" stop-color="#02017D"></stop><stop offset="0.1941" stop-color="#13238D"></stop><stop offset="0.3881" stop-color="#203E99"></stop><stop offset="0.5851" stop-color="#2951A1"></stop><stop offset="0.7867" stop-color="#2E5CA6"></stop><stop offset="1" stop-color="#3060A8"></stop></linearGradient><linearGradient id="paint26_linear_13_352" x1="332.926" y1="-10.1524" x2="332.926" y2="226.179" gradientUnits="userSpaceOnUse"><stop stop-color="#02007D"></stop><stop offset="0.00373083" stop-color="#02017D"></stop><stop offset="0.1941" stop-color="#13238D"></stop><stop offset="0.3881" stop-color="#203E99"></stop><stop offset="0.5851" stop-color="#2951A1"></stop><stop offset="0.7867" stop-color="#2E5CA6"></stop><stop offset="1" stop-color="#3060A8"></stop></linearGradient><linearGradient id="paint27_linear_13_352" x1="332.926" y1="-10.1526" x2="332.926" y2="226.179" gradientUnits="userSpaceOnUse"><stop stop-color="#02007D"></stop><stop offset="0.00373083" stop-color="#02017D"></stop><stop offset="0.1941" stop-color="#13238D"></stop><stop offset="0.3881" stop-color="#203E99"></stop><stop offset="0.5851" stop-color="#2951A1"></stop><stop offset="0.7867" stop-color="#2E5CA6"></stop><stop offset="1" stop-color="#3060A8"></stop></linearGradient><linearGradient id="paint28_linear_13_352" x1="332.926" y1="-10.154" x2="332.926" y2="226.179" gradientUnits="userSpaceOnUse"><stop stop-color="#02007D"></stop><stop offset="0.00373083" stop-color="#02017D"></stop><stop offset="0.1941" stop-color="#13238D"></stop><stop offset="0.3881" stop-color="#203E99"></stop><stop offset="0.5851" stop-color="#2951A1"></stop><stop offset="0.7867" stop-color="#2E5CA6"></stop><stop offset="1" stop-color="#3060A8"></stop></linearGradient><linearGradient id="paint29_linear_13_352" x1="455.504" y1="425.388" x2="540.139" y2="425.388" gradientUnits="userSpaceOnUse"><stop stop-color="white"></stop><stop offset="1" stop-color="#A4D4ED"></stop></linearGradient><linearGradient id="paint30_linear_13_352" x1="455.504" y1="403.28" x2="540.139" y2="403.28" gradientUnits="userSpaceOnUse"><stop stop-color="white"></stop><stop offset="1" stop-color="#A4D4ED"></stop></linearGradient><linearGradient id="paint31_linear_13_352" x1="455.504" y1="381.172" x2="540.139" y2="381.172" gradientUnits="userSpaceOnUse"><stop stop-color="white"></stop><stop offset="1" stop-color="#A4D4ED"></stop></linearGradient><linearGradient id="paint32_linear_13_352" x1="455.504" y1="359.065" x2="540.139" y2="359.065" gradientUnits="userSpaceOnUse"><stop stop-color="white"></stop><stop offset="1" stop-color="#A4D4ED"></stop></linearGradient><linearGradient id="paint33_linear_13_352" x1="11.0694" y1="444.687" x2="234.31" y2="577.938" gradientUnits="userSpaceOnUse"><stop stop-color="#366EB2"></stop><stop offset="0.0001" stop-color="#F16422"></stop><stop offset="1" stop-color="#FE8F5B"></stop></linearGradient><linearGradient id="paint34_linear_13_352" x1="52.7766" y1="489.834" x2="278.258" y2="489.834" gradientUnits="userSpaceOnUse"><stop stop-color="#66D2FE"></stop><stop offset="0.4283" stop-color="#4792C3"></stop><stop offset="0.8125" stop-color="#2F5E94"></stop><stop offset="1" stop-color="#254A82"></stop></linearGradient><linearGradient id="paint35_linear_13_352" x1="52.8014" y1="452.836" x2="278.258" y2="452.836" gradientUnits="userSpaceOnUse"><stop stop-color="white"></stop><stop offset="1" stop-color="#A4D4ED"></stop></linearGradient><linearGradient id="paint36_linear_13_352" x1="52.7766" y1="461.153" x2="278.258" y2="461.153" gradientUnits="userSpaceOnUse"><stop stop-color="#66D2FE"></stop><stop offset="0.4283" stop-color="#4792C3"></stop><stop offset="0.8125" stop-color="#2F5E94"></stop><stop offset="1" stop-color="#254A82"></stop></linearGradient><linearGradient id="paint37_linear_13_352" x1="52.8014" y1="424.156" x2="278.258" y2="424.156" gradientUnits="userSpaceOnUse"><stop stop-color="white"></stop><stop offset="1" stop-color="#A4D4ED"></stop></linearGradient><linearGradient id="paint38_linear_13_352" x1="156.869" y1="535.76" x2="380.109" y2="669.011" gradientUnits="userSpaceOnUse"><stop stop-color="#366EB2"></stop><stop offset="0.0001" stop-color="#F16422"></stop><stop offset="1" stop-color="#FE8F5B"></stop></linearGradient><linearGradient id="paint39_linear_13_352" x1="198.554" y1="580.786" x2="424.036" y2="580.786" gradientUnits="userSpaceOnUse"><stop stop-color="#66D2FE"></stop><stop offset="0.4283" stop-color="#4792C3"></stop><stop offset="0.8125" stop-color="#2F5E94"></stop><stop offset="1" stop-color="#254A82"></stop></linearGradient><linearGradient id="paint40_linear_13_352" x1="198.579" y1="543.788" x2="424.036" y2="543.788" gradientUnits="userSpaceOnUse"><stop stop-color="white"></stop><stop offset="1" stop-color="#A4D4ED"></stop></linearGradient><linearGradient id="paint41_linear_13_352" x1="166.721" y1="344.603" x2="389.889" y2="477.719" gradientUnits="userSpaceOnUse"><stop stop-color="#366EB2"></stop><stop offset="0.0001" stop-color="#F16422"></stop><stop offset="1" stop-color="#FE8F5B"></stop></linearGradient><linearGradient id="paint42_linear_13_352" x1="208.353" y1="389.736" x2="433.835" y2="389.736" gradientUnits="userSpaceOnUse"><stop stop-color="#66D2FE"></stop><stop offset="0.4283" stop-color="#4792C3"></stop><stop offset="0.8125" stop-color="#2F5E94"></stop><stop offset="1" stop-color="#254A82"></stop></linearGradient><linearGradient id="paint43_linear_13_352" x1="208.378" y1="352.738" x2="433.835" y2="352.738" gradientUnits="userSpaceOnUse"><stop stop-color="white"></stop><stop offset="1" stop-color="#A4D4ED"></stop></linearGradient><linearGradient id="paint44_linear_13_352" x1="208.353" y1="360.992" x2="433.835" y2="360.992" gradientUnits="userSpaceOnUse"><stop stop-color="#66D2FE"></stop><stop offset="0.4283" stop-color="#4792C3"></stop><stop offset="0.8125" stop-color="#2F5E94"></stop><stop offset="1" stop-color="#254A82"></stop></linearGradient><linearGradient id="paint45_linear_13_352" x1="208.378" y1="323.995" x2="433.835" y2="323.995" gradientUnits="userSpaceOnUse"><stop stop-color="white"></stop><stop offset="1" stop-color="#A4D4ED"></stop></linearGradient><linearGradient id="paint46_linear_13_352" x1="208.353" y1="332.249" x2="433.835" y2="332.249" gradientUnits="userSpaceOnUse"><stop stop-color="#66D2FE"></stop><stop offset="0.4283" stop-color="#4792C3"></stop><stop offset="0.8125" stop-color="#2F5E94"></stop><stop offset="1" stop-color="#254A82"></stop></linearGradient><linearGradient id="paint47_linear_13_352" x1="208.378" y1="295.252" x2="433.835" y2="295.252" gradientUnits="userSpaceOnUse"><stop stop-color="white"></stop><stop offset="1" stop-color="#A4D4ED"></stop></linearGradient><linearGradient id="paint48_linear_13_352" x1="65.362" y1="345.264" x2="164.916" y2="345.264" gradientUnits="userSpaceOnUse"><stop stop-color="#66D2FE"></stop><stop offset="0.3365" stop-color="#52A7DE"></stop><stop offset="0.7813" stop-color="#3974B7"></stop><stop offset="1" stop-color="#3060A8"></stop></linearGradient><linearGradient id="paint49_linear_13_352" x1="181.649" y1="395.277" x2="43.7145" y2="378.014" gradientUnits="userSpaceOnUse"><stop stop-color="#02007D"></stop><stop offset="0.00373083" stop-color="#02017D"></stop><stop offset="0.1941" stop-color="#13238D"></stop><stop offset="0.3881" stop-color="#203E99"></stop><stop offset="0.5851" stop-color="#2951A1"></stop><stop offset="0.7867" stop-color="#2E5CA6"></stop><stop offset="1" stop-color="#3060A8"></stop></linearGradient><linearGradient id="paint50_linear_13_352" x1="92.8285" y1="365.066" x2="192.383" y2="365.066" gradientUnits="userSpaceOnUse"><stop stop-color="#FF5A72"></stop><stop offset="0.1515" stop-color="#FF6971"></stop><stop offset="0.7206" stop-color="#F16422"></stop><stop offset="1" stop-color="#FFB06D"></stop></linearGradient><linearGradient id="paint51_linear_13_352" x1="77.0511" y1="394.433" x2="185.556" y2="440.925" gradientUnits="userSpaceOnUse"><stop stop-color="#366EB2"></stop><stop offset="0.0001" stop-color="#F16422"></stop><stop offset="1" stop-color="#FE8F5B"></stop></linearGradient><linearGradient id="paint52_linear_13_352" x1="234.791" y1="536.539" x2="341.693" y2="536.539" gradientUnits="userSpaceOnUse"><stop stop-color="#66D2FE"></stop><stop offset="0.4283" stop-color="#4792C3"></stop><stop offset="0.8125" stop-color="#2F5E94"></stop><stop offset="1" stop-color="#254A82"></stop></linearGradient><linearGradient id="paint53_linear_13_352" x1="265.568" y1="507.161" x2="322.999" y2="545.844" gradientUnits="userSpaceOnUse"><stop stop-color="#FF5A72"></stop><stop offset="0.2266" stop-color="#CA5C80"></stop><stop offset="0.603" stop-color="#785E95"></stop><stop offset="0.8698" stop-color="#445FA3"></stop><stop offset="1" stop-color="#3060A8"></stop></linearGradient><linearGradient id="paint54_linear_13_352" x1="344.722" y1="552.689" x2="387.808" y2="552.689" gradientUnits="userSpaceOnUse"><stop stop-color="#02007D"></stop><stop offset="0.00373083" stop-color="#02017D"></stop><stop offset="0.1941" stop-color="#13238D"></stop><stop offset="0.3881" stop-color="#203E99"></stop><stop offset="0.5851" stop-color="#2951A1"></stop><stop offset="0.7867" stop-color="#2E5CA6"></stop><stop offset="1" stop-color="#3060A8"></stop></linearGradient><linearGradient id="paint55_linear_13_352" x1="344.48" y1="510.784" x2="387.808" y2="510.784" gradientUnits="userSpaceOnUse"><stop stop-color="#FF5A72"></stop><stop offset="0.1515" stop-color="#FF6971" stop-opacity="0.8788"></stop><stop offset="0.7206" stop-color="#FF9C6E" stop-opacity="0.4235"></stop><stop offset="1" stop-color="#FFB06D" stop-opacity="0.2"></stop></linearGradient><linearGradient id="paint56_linear_13_352" x1="308.88" y1="579.238" x2="332.415" y2="579.238" gradientUnits="userSpaceOnUse"><stop stop-color="#02007D"></stop><stop offset="0.00373083" stop-color="#02017D"></stop><stop offset="0.1941" stop-color="#13238D"></stop><stop offset="0.3881" stop-color="#203E99"></stop><stop offset="0.5851" stop-color="#2951A1"></stop><stop offset="0.7867" stop-color="#2E5CA6"></stop><stop offset="1" stop-color="#3060A8"></stop></linearGradient><linearGradient id="paint57_linear_13_352" x1="308.748" y1="556.349" x2="332.415" y2="556.349" gradientUnits="userSpaceOnUse"><stop stop-color="#FF5A72"></stop><stop offset="0.1515" stop-color="#FF6971" stop-opacity="0.8788"></stop><stop offset="0.7206" stop-color="#FF9C6E" stop-opacity="0.4235"></stop><stop offset="1" stop-color="#FFB06D" stop-opacity="0.2"></stop></linearGradient><linearGradient id="paint58_linear_13_352" x1="491.865" y1="498.281" x2="527.583" y2="498.281" gradientUnits="userSpaceOnUse"><stop stop-color="#02007D"></stop><stop offset="0.00373083" stop-color="#02017D"></stop><stop offset="0.1941" stop-color="#13238D"></stop><stop offset="0.3881" stop-color="#203E99"></stop><stop offset="0.5851" stop-color="#2951A1"></stop><stop offset="0.7867" stop-color="#2E5CA6"></stop><stop offset="1" stop-color="#3060A8"></stop></linearGradient><linearGradient id="paint59_linear_13_352" x1="491.665" y1="463.543" x2="527.583" y2="463.543" gradientUnits="userSpaceOnUse"><stop stop-color="#F16422"></stop><stop offset="0.1515" stop-color="#F16422" stop-opacity="0.8788"></stop><stop offset="0.7206" stop-color="#F16422" stop-opacity="0.42"></stop><stop offset="1" stop-color="#F16422" stop-opacity="0.2"></stop></linearGradient></defs></svg>